<?xml version="1.0" encoding="utf-8"?>
<!-- Generator: Adobe Illustrator 22.1.0, SVG Export Plug-In . SVG Version: 6.00 Build 0)  -->
<svg version="1.1" id="Capa_4" xmlns="http://www.w3.org/2000/svg" xmlns:xlink="http://www.w3.org/1999/xlink" x="0px" y="0px"
	 viewBox="0 0 1920 1080" style="enable-background:new 0 0 1920 1080;" xml:space="preserve">
<style type="text/css">
	.st0{opacity:0.3;}
	.st1{fill:#8385BB;}
	.st2{fill:#676A8D;}
	.st3{fill:#F08A7C;}
	.st4{fill:none;stroke:#C7736C;stroke-width:3;stroke-miterlimit:10;}
	.st5{fill:#F0D479;}
	.st6{fill:#D2AD51;}
	.st7{fill:#C7736C;}
	.st8{fill:#6CBC91;}
	.st9{fill:#4B986F;}
	.st10{fill:#DF73AA;}
	.st11{fill:#B04A88;}
	.st12{fill:#6DC4C8;}
	.st13{fill:#4A8484;}
</style>
<g class="st0">
	<circle class="st1" cx="562.3" cy="1069.1" r="11.3"/>
	<path class="st2" d="M574.1,1065.7c0,6.9-5.6,12.5-12.4,12.5c-6.9,0-12.5-5.6-12.5-12.4c0-4.6,2.5-8.8,6.6-11l0,0
		c6.1-3.2,13.6-0.9,16.8,5.1C573.6,1061.7,574.1,1063.7,574.1,1065.7z M551.5,1065.8c0,5.6,4.6,10.2,10.2,10.2
		c5.6,0,10.2-4.6,10.2-10.2s-4.6-10.2-10.2-10.2c-4.5,0-8.4,2.9-9.8,7.2C551.7,1063.8,551.5,1064.8,551.5,1065.8z"/>
	<path class="st1" d="M376,780.7l7.8-23.3c0.7-2.1,2.9-3.2,5-2.5l23.3,7.8c2.1,0.7,3.2,2.9,2.5,5l-7.8,23.3c-0.7,2.1-2.9,3.2-5,2.5
		l-23.3-7.8C376.4,785.1,375.3,782.8,376,780.7z"/>
	<path class="st2" d="M420.8,773.6c0,0.6-0.1,1.2-0.3,1.8l-7.8,23.3c-1,3-4.2,4.6-7.2,3.6c0,0,0,0,0,0l-23.3-7.8
		c-3-1-4.6-4.2-3.6-7.2l7.8-23.3c1-3,4.2-4.6,7.2-3.6c0,0,0,0,0,0l23.3,7.8C419.3,769,420.8,771.2,420.8,773.6z M381.8,789.1
		c0,1,0.6,1.8,1.5,2.1l23.3,7.8c1.2,0.4,2.5-0.2,2.9-1.4l7.8-23.3c0.4-1.2-0.2-2.5-1.4-2.9l-23.3-7.8c-1.2-0.4-2.5,0.2-2.9,1.4
		l-7.8,23.3C381.9,788.6,381.8,788.9,381.8,789.1z"/>
	<path class="st3" d="M19.5,1077.9l-27.6-13.7c-1.9-1-4.2-0.2-5.2,1.7c-0.3,0.6-0.4,1.3-0.4,2l1.9,30.7c0.1,2.1,2,3.8,4.1,3.6
		c0.7,0,1.3-0.3,1.9-0.6l25.7-17c1.8-1.2,2.3-3.6,1.1-5.4C20.7,1078.7,20.1,1078.2,19.5,1077.9z"/>
	<path class="st4" d="M31.8,1077.2l-27.6-13.7c-1.9-1-4.2-0.2-5.2,1.7c-0.3,0.6-0.4,1.3-0.4,2l1.9,30.7c0.1,2.1,2,3.8,4.1,3.6
		c0.7,0,1.3-0.3,1.9-0.6l25.7-17c1.8-1.2,2.3-3.6,1.1-5.4C33,1078,32.4,1077.5,31.8,1077.2z"/>
	<circle class="st5" cx="103.2" cy="583.9" r="21.6"/>
	<path class="st6" d="M130.7,579.6c0,12.9-10.5,23.3-23.3,23.2s-23.3-10.5-23.2-23.3c0-12.9,10.5-23.3,23.3-23.2
		c3.9,0,7.7,1,11.1,2.8l0,0C126.1,563.3,130.7,571.1,130.7,579.6z M87.6,579.6c0,1.9,0.3,3.8,0.8,5.6c3.1,10.4,14.1,16.4,24.5,13.3
		s16.4-14.1,13.3-24.5c-3.1-10.4-14.1-16.4-24.5-13.3C93.3,563.2,87.6,570.8,87.6,579.6z"/>
	
		<ellipse transform="matrix(1.612276e-02 -0.9999 0.9999 1.612276e-02 -719.2923 824.6552)" class="st3" cx="59.4" cy="777.8" rx="11.3" ry="11.3"/>
	<path class="st7" d="M72.9,774.6c0,6.9-5.6,12.4-12.4,12.4S48,781.5,48,774.6s5.6-12.4,12.4-12.4c0,0,0,0,0,0
		C67.3,762.2,72.9,767.7,72.9,774.6z M50.3,774.6c0,5.6,4.5,10.2,10.2,10.2s10.2-4.5,10.2-10.2c0-5.6-4.5-10.2-10.2-10.2
		C54.8,764.5,50.3,769,50.3,774.6z"/>
	<path class="st7" d="M420.1,1091.5c0,6.9-5.6,12.4-12.4,12.4s-12.4-5.6-12.4-12.4c0-6.9,5.6-12.4,12.4-12.4
		C414.5,1079.1,420.1,1084.7,420.1,1091.5z M397.5,1091.5c0,5.6,4.5,10.2,10.2,10.2c5.6,0,10.2-4.5,10.2-10.2s-4.5-10.2-10.2-10.2
		l0,0C402.1,1081.4,397.5,1085.9,397.5,1091.5z"/>
	<circle class="st8" cx="491.9" cy="631.9" r="17.4"/>
	<path class="st9" d="M512.3,627.2c0,10.5-8.5,19.1-19.1,19.1c-10.5,0-19.1-8.5-19.1-19.1c0-10.5,8.5-19.1,19.1-19.1
		C503.7,608.2,512.3,616.7,512.3,627.2z M477.6,627.2c0,8.6,7,15.6,15.6,15.6c8.6,0,15.6-7,15.6-15.6c0-8.6-7-15.6-15.6-15.6
		C484.6,611.6,477.6,618.6,477.6,627.2L477.6,627.2z"/>
	<path class="st1" d="M223.1,731l-5.4-15.5c-0.5-1.4,0.2-2.9,1.6-3.4l15.5-5.4c1.4-0.5,2.9,0.2,3.4,1.6l5.4,15.5
		c0.5,1.4-0.2,2.9-1.6,3.4l-15.5,5.4C225.1,733.1,223.6,732.4,223.1,731z"/>
	<path class="st2" d="M251.9,725.9c0,1.6-1,3.1-2.6,3.6l-15.5,5.4c-2,0.7-4.2-0.4-4.8-2.3c0,0,0,0,0,0l-5.4-15.5
		c-0.7-2,0.4-4.2,2.3-4.8c0,0,0,0,0,0l15.5-5.4c2-0.7,4.2,0.4,4.8,2.3l5.4,15.5C251.8,725,251.9,725.5,251.9,725.9z M225.6,715.8
		c0,0.2,0,0.3,0.1,0.5l5.4,15.5c0.3,0.8,1.1,1.2,1.9,0.9c0,0,0,0,0,0l15.5-5.4c0.8-0.3,1.2-1.1,0.9-1.9l-5.4-15.5
		c-0.3-0.8-1.1-1.2-1.9-0.9l-15.5,5.4C226,714.6,225.6,715.1,225.6,715.8L225.6,715.8z"/>
	<path class="st5" d="M179.9,953l-20.9-2.8c-1.5-0.2-2.8,0.8-3,2.3c-0.1,0.5,0,0.9,0.2,1.4l8,19.5c0.6,1.4,2.1,2,3.5,1.4
		c0.4-0.2,0.8-0.5,1.1-0.8l12.9-16.7c0.9-1.2,0.7-2.8-0.5-3.7C180.8,953.3,180.4,953.1,179.9,953z"/>
	<path class="st6" d="M178.4,954.8c0,1-0.3,1.9-0.9,2.7l-12.9,16.7c-1.5,1.9-4.2,2.3-6.1,0.8c-0.6-0.5-1.1-1.1-1.4-1.8l-8-19.5
		c-0.9-2.2,0.1-4.8,2.4-5.7c0.7-0.3,1.5-0.4,2.2-0.3l20.9,2.8c1.6,0.2,2.9,1.2,3.5,2.7C178.3,953.7,178.4,954.3,178.4,954.8z
		 M152.2,952c0,0.1,0,0.2,0.1,0.4l8,19.5c0.2,0.5,0.7,0.7,1.2,0.5c0.2-0.1,0.3-0.2,0.4-0.3l12.9-16.7c0.3-0.4,0.2-1-0.2-1.3
		c-0.1-0.1-0.3-0.2-0.4-0.2v0l-20.9-2.8c-0.3,0-0.7,0.1-0.9,0.4C152.3,951.6,152.2,951.8,152.2,952z M174.4,952.2L174.4,952.2z"/>
	<path class="st10" d="M330.8,940.7l-21.9-2.9c-1.5-0.2-2.9,0.9-3.1,2.4c-0.1,0.5,0,1,0.2,1.4l8.4,20.4c0.6,1.4,2.2,2.1,3.6,1.5
		c0.5-0.2,0.8-0.5,1.1-0.9l13.5-17.5c0.9-1.2,0.7-3-0.5-3.9C331.7,940.9,331.2,940.7,330.8,940.7z"/>
	<path class="st11" d="M343.1,940.1c0,1-0.3,1.9-0.9,2.7l-13.5,17.5c-1.5,2-4.3,2.3-6.3,0.8c-0.6-0.5-1.1-1.1-1.4-1.9l-8.4-20.4
		c-0.9-2.3,0.1-4.9,2.4-5.9c0.7-0.3,1.5-0.4,2.3-0.3l21.9,2.9c1.6,0.2,3,1.3,3.6,2.7C342.9,938.9,343.1,939.5,343.1,940.1z
		 M315.6,937.2c0,0.1,0,0.3,0.1,0.4l8.4,20.4c0.2,0.5,0.8,0.8,1.4,0.6c0.2-0.1,0.3-0.2,0.4-0.3l13.5-17.5c0.4-0.5,0.3-1.1-0.2-1.5
		c-0.1-0.1-0.3-0.2-0.5-0.2l-21.9-2.9c-0.4-0.1-0.8,0.1-1,0.4C315.7,936.7,315.6,936.9,315.6,937.2L315.6,937.2z"/>
	<path class="st10" d="M286.3,550.2l-14.7,27.1c-1,1.9-0.3,4.2,1.6,5.3c0.6,0.3,1.3,0.5,2,0.5l30.8-0.8c2.1-0.1,3.8-1.8,3.8-4
		c0-0.7-0.2-1.3-0.6-1.9L293,550c-1.1-1.8-3.5-2.4-5.3-1.3C287.1,549.1,286.6,549.6,286.3,550.2z"/>
	<path class="st10" d="M624.9,703.1c0.2,0.5,0,1.2-0.6,1.4c0,0,0,0,0,0l-22.7,9.6c-0.5,0.2-1.2,0-1.4-0.6c-0.2-0.5,0-1.2,0.6-1.4
		l22.7-9.6C624,702.3,624.7,702.6,624.9,703.1C624.9,703.1,624.9,703.1,624.9,703.1z"/>
	<path class="st10" d="M627.9,693.7c0.2,0.5,0,1.2-0.6,1.4c0,0,0,0,0,0l-22.7,9.6c-0.5,0.2-1.2,0-1.4-0.6c-0.2-0.5,0-1.2,0.6-1.4
		l0,0l22.7-9.6C627,692.9,627.6,693.1,627.9,693.7C627.9,693.7,627.9,693.7,627.9,693.7z"/>
	<path class="st10" d="M618.6,688.3c0.2,0.5,0,1.2-0.6,1.4c0,0,0,0,0,0l-22.7,9.6c-0.5,0.2-1.2,0-1.4-0.6c-0.2-0.5,0-1.2,0.6-1.4
		l22.7-9.6C617.8,687.5,618.4,687.8,618.6,688.3C618.6,688.3,618.6,688.3,618.6,688.3z"/>
	<path class="st11" d="M623.4,705.8c0,0.5-0.3,0.9-0.7,1.1l-22.7,9.6c-0.6,0.2-1.3,0-1.5-0.6c-0.2-0.6,0-1.3,0.6-1.5l22.7-9.6
		c0.6-0.2,1.3,0,1.5,0.6c0,0,0,0,0,0C623.4,705.5,623.4,705.6,623.4,705.8z"/>
	<path class="st11" d="M626.4,696.4c0,0.5-0.3,0.9-0.7,1.1L603,707c-0.6,0.2-1.3,0-1.5-0.6c-0.2-0.6,0-1.3,0.6-1.5l22.6-9.6
		c0.6-0.2,1.3,0,1.5,0.6c0,0,0,0,0,0C626.4,696,626.4,696.2,626.4,696.4z"/>
	<path class="st11" d="M617.1,691c0,0.5-0.3,0.9-0.7,1.1l-22.7,9.6c-0.6,0.2-1.3,0-1.5-0.6c-0.2-0.6,0-1.3,0.6-1.5l0,0l22.7-9.6
		c0.6-0.2,1.3,0,1.5,0.6c0,0,0,0,0,0C617.1,690.7,617.1,690.8,617.1,691z"/>
	<path class="st5" d="M501,968.6c-0.1,0.3-0.3,0.5-0.6,0.6l-3.4,1.3c-1.3,0.5-2.8-0.2-3.3-1.5l-1.3-3.4c-0.1-0.2-0.3-0.3-0.6-0.3
		c0,0,0,0,0,0l-2.8,1.2c-1.3,0.6-2.8,0-3.4-1.3c0,0,0-0.1-0.1-0.1l-1.2-3.1c0-0.1-0.1-0.2-0.2-0.3c-0.1,0-0.2-0.1-0.3,0l-3.1,1.2
		c-1.3,0.5-2.8-0.1-3.4-1.4c0,0,0,0,0,0l-1.4-3.6c-0.2-0.5,0-1.2,0.6-1.4c0.5-0.2,1.2,0,1.4,0.6c0,0,0,0,0,0l1.4,3.6
		c0,0.1,0.1,0.2,0.2,0.2c0.1,0,0.2,0,0.3,0l3.1-1.2c1.3-0.5,2.8,0.1,3.4,1.4c0,0,0,0.1,0,0.1l1.2,3.1c0.1,0.2,0.3,0.3,0.6,0.3
		c0,0,0,0,0,0l2.8-1.2c1.3-0.6,2.8,0,3.4,1.3c0,0,0,0.1,0,0.1l1.3,3.4c0.1,0.2,0.3,0.3,0.6,0.3l3.4-1.3c0.6-0.2,1.2,0.1,1.4,0.6
		C501.1,968,501.1,968.3,501,968.6z"/>
	<path class="st6" d="M500.9,966c0,0.5-0.3,0.9-0.7,1.1l-3.4,1.3c-1.4,0.5-2.9-0.2-3.4-1.5l-1.3-3.4c-0.1-0.2-0.3-0.3-0.5-0.2
		c0,0,0,0,0,0l-2.8,1.2c-1.3,0.6-2.9,0-3.5-1.4c0,0,0-0.1-0.1-0.1l-1.2-3.1c-0.1-0.2-0.3-0.3-0.5-0.2c0,0,0,0,0,0l-3.1,1.3
		c-1.4,0.6-2.9-0.1-3.5-1.5c0,0,0,0,0,0l-1.4-3.6c-0.2-0.6,0-1.3,0.6-1.5c0.6-0.2,1.3,0,1.5,0.6c0,0,0,0,0,0l1.4,3.6
		c0,0.1,0.1,0.2,0.2,0.2c0.1,0,0.2,0,0.3,0l3.1-1.3c1.4-0.6,2.9,0.1,3.5,1.5c0,0,0,0.1,0,0.1l1.2,3.1c0.1,0.2,0.3,0.3,0.5,0.2
		c0,0,0,0,0,0l2.8-1.2c1.3-0.6,2.9,0,3.5,1.4c0,0,0,0.1,0,0.1l1.3,3.4c0.1,0.2,0.3,0.3,0.5,0.2l3.4-1.3c0.6-0.2,1.3,0.1,1.5,0.7
		c0,0,0,0,0,0C500.9,965.7,500.9,965.9,500.9,966z"/>
	<path class="st12" d="M556.1,829.3c0.3,0.3,0.4,0.8,0.3,1.2l-0.7,5.5c-0.3,2.1-2.2,3.6-4.3,3.4l-5.5-0.5c-0.4,0-0.7,0.2-0.8,0.6
		c0,0,0,0,0,0l-0.3,4.7c-0.1,2.2-2,3.8-4.2,3.6c-0.1,0-0.1,0-0.2,0l-5.1-0.6c-0.4,0-0.7,0.2-0.8,0.6c0,0,0,0,0,0l-0.4,5
		c-0.2,2.2-2.1,3.7-4.2,3.6c0,0,0,0,0,0l-5.8-0.5c-0.9-0.1-1.5-0.9-1.5-1.7s0.9-1.5,1.7-1.5l5.8,0.5c0.4,0,0.7-0.3,0.8-0.6l0.4-5
		c0.2-2.2,2.1-3.7,4.2-3.6c0,0,0.1,0,0.1,0l5.1,0.6c0.4,0,0.7-0.2,0.8-0.6c0,0,0,0,0,0l0.3-4.7c0.1-2.2,2-3.8,4.2-3.6
		c0,0,0.1,0,0.1,0l5.5,0.5c0.4,0,0.7-0.2,0.8-0.6l0.7-5.5c0.1-0.9,0.9-1.5,1.8-1.4C555.5,828.8,555.9,829,556.1,829.3z"/>
	<path class="st13" d="M553.4,829.5c0,0.1,0,0.1,0,0.2l-0.7,5.5c-0.3,2.2-2.2,3.7-4.4,3.5l-5.5-0.5c-0.3,0-0.6,0.2-0.6,0.5
		c0,0,0,0,0,0l-0.3,4.7c-0.1,2.2-2.1,3.9-4.3,3.8c-0.1,0-0.1,0-0.2,0l-5.1-0.6c-0.3,0-0.6,0.2-0.7,0.5c0,0,0,0,0,0l-0.4,5
		c-0.2,2.2-2.1,3.9-4.4,3.7c0,0,0,0,0,0l-5.8-0.5c-0.9-0.1-1.6-0.9-1.6-1.9s0.9-1.6,1.9-1.6l5.8,0.5c0.2,0,0.3,0,0.4-0.1
		c0.1-0.1,0.2-0.2,0.2-0.4l0.4-5c0.2-2.2,2.1-3.9,4.4-3.7c0,0,0.1,0,0.1,0l5.1,0.6c0.3,0,0.6-0.2,0.7-0.5c0,0,0,0,0,0l0.3-4.7
		c0.1-2.2,2.1-3.9,4.3-3.8c0,0,0.1,0,0.1,0l5.5,0.5c0.3,0,0.6-0.2,0.6-0.5l0.7-5.5c0.1-0.9,1-1.6,1.9-1.5
		C552.7,827.9,553.4,828.7,553.4,829.5z"/>
	<path class="st1" d="M201.6,1076.4c0.1,0.3,0.1,0.6,0,0.8l-1.3,3.4c-0.5,1.3-1.9,2-3.3,1.5l-3.4-1.2c-0.2-0.1-0.5,0-0.6,0.3
		c0,0,0,0,0,0l-0.9,3c-0.4,1.4-1.9,2.1-3.2,1.7c0,0-0.1,0-0.1,0l-3.1-1.2c-0.1,0-0.2,0-0.3,0c-0.1,0.1-0.2,0.1-0.2,0.3l-1.1,3.1
		c-0.5,1.4-1.9,2.1-3.3,1.6c0,0,0,0,0,0l-3.6-1.2c-0.6-0.2-0.9-0.8-0.7-1.4c0.2-0.6,0.8-0.9,1.3-0.7l3.6,1.2c0.1,0,0.2,0,0.3,0
		c0.1-0.1,0.2-0.1,0.2-0.3l1.1-3.1c0.5-1.4,1.9-2.1,3.3-1.6c0,0,0.1,0,0.1,0l3.1,1.2c0.2,0.1,0.5,0,0.6-0.3c0,0,0,0,0,0l0.9-3
		c0.4-1.4,1.9-2.1,3.2-1.7c0,0,0.1,0,0.1,0l3.4,1.2c0.2,0.1,0.5,0,0.6-0.3l1.3-3.4c0.2-0.6,0.8-0.8,1.4-0.6
		C201.3,1075.9,201.5,1076.1,201.6,1076.4z"/>
	<path class="st2" d="M201.2,1075.4c0,0.1,0,0.3-0.1,0.4l-1.3,3.4c-0.5,1.3-2,2-3.4,1.5l-3.4-1.3c-0.2-0.1-0.4,0-0.5,0.2
		c0,0,0,0,0,0l-1,2.9c-0.5,1.4-2,2.1-3.4,1.7c0,0-0.1,0-0.1-0.1l-3.1-1.2c-0.2-0.1-0.4,0-0.5,0.2c0,0,0,0,0,0l-1.1,3.1
		c-0.5,1.4-2,2.1-3.4,1.6c0,0,0,0,0,0l-3.6-1.3c-0.6-0.2-0.9-0.9-0.7-1.5c0.2-0.6,0.9-0.9,1.5-0.7c0,0,0,0,0,0l3.6,1.3
		c0.1,0,0.2,0,0.3,0c0.1,0,0.2-0.1,0.2-0.2l1.1-3.1c0.5-1.4,2-2.1,3.4-1.6c0,0,0.1,0,0.1,0l3.1,1.2c0.2,0.1,0.4,0,0.5-0.2
		c0,0,0,0,0,0l1-2.9c0.5-1.4,2-2.1,3.4-1.7c0,0,0.1,0,0.1,0l3.4,1.3c0.2,0.1,0.4,0,0.5-0.2l1.3-3.4c0.2-0.6,0.9-0.9,1.5-0.6
		C200.9,1074.5,201.2,1074.9,201.2,1075.4z"/>
	<path class="st8" d="M643.6,902.5l8.8-23c0.8-2.1,3.1-3.1,5.1-2.3l23,8.8c2.1,0.8,3.1,3.1,2.3,5.1l-8.8,23
		c-0.8,2.1-3.1,3.1-5.1,2.3l-23-8.8C643.9,906.8,642.8,904.5,643.6,902.5z"/>
	<path class="st9" d="M691.5,897.7c0,0.7-0.1,1.4-0.4,2l-8.8,23c-1.1,2.9-4.4,4.4-7.4,3.3l-23-8.8c-2.9-1.1-4.4-4.4-3.3-7.4
		c0,0,0,0,0,0l8.8-23c1.1-2.9,4.4-4.4,7.4-3.3c0,0,0,0,0,0l23,8.8C690,893.2,691.5,895.3,691.5,897.7z M687.9,898.5
		c0.4-1.2-0.1-2.5-1.3-2.9l-23-8.8c-1.2-0.4-2.5,0.1-2.9,1.3l-8.8,23c-0.4,1.2,0.1,2.5,1.3,2.9c0,0,0,0,0,0l23,8.8
		c1.2,0.4,2.5-0.1,2.9-1.3L687.9,898.5z"/>
	<path class="st11" d="M311.1,566c0,3-2.4,5.5-5.5,5.6l-30.8,0.8c-3.1,0.1-5.7-2.4-5.7-5.4c0-1,0.2-2,0.7-2.8l14.7-27.1l0,0
		c1.5-2.7,4.9-3.7,7.6-2.2c0.9,0.5,1.6,1.2,2.1,2l16.1,26.3C310.8,563.9,311.1,564.9,311.1,566z M272.5,566.7c0,0.4,0.1,0.8,0.3,1.1
		c0.4,0.7,1.1,1.1,1.9,1l30.8-0.8c1.2,0,2.1-1,2.1-2.2c0-0.4-0.1-0.7-0.3-1.1l-16.1-26.3c-0.6-1-2-1.3-3-0.7
		c-0.3,0.2-0.6,0.5-0.8,0.8l0,0l-14.7,27.1C272.6,566,272.5,566.4,272.5,566.7z"/>
	<circle class="st1" cx="1227.5" cy="1069.1" r="11.3"/>
	<path class="st2" d="M1239.3,1065.7c0,6.9-5.6,12.5-12.4,12.5c-6.9,0-12.5-5.6-12.5-12.4c0-4.6,2.5-8.8,6.6-11l0,0
		c6.1-3.2,13.6-0.9,16.8,5.1C1238.8,1061.7,1239.3,1063.7,1239.3,1065.7z M1216.7,1065.8c0,5.6,4.6,10.2,10.2,10.2
		c5.6,0,10.2-4.6,10.2-10.2s-4.6-10.2-10.2-10.2c-4.5,0-8.4,2.9-9.8,7.2C1216.9,1063.8,1216.7,1064.8,1216.7,1065.8z"/>
	<path class="st1" d="M1075.7,780.1l4.1-12.3c0.7-2.1-0.4-4.3-2.5-5L1054,755c-2.1-0.7-4.3,0.4-5,2.5l-7.6,22.6H1075.7z"/>
	<path class="st2" d="M1049.9,780.1l5-15c0.4-1.2,1.7-1.8,2.9-1.4l23.3,7.8c1.2,0.4,1.8,1.7,1.4,2.9l-1.9,5.7h3.6l1.6-4.6
		c1-3-0.6-6.2-3.6-7.2c0,0,0,0,0,0l-23.3-7.8c-3-1-6.2,0.6-7.2,3.6c0,0,0,0,0,0l-5.4,16.1H1049.9z"/>
	<path class="st3" d="M684.7,1077.9l-27.6-13.7c-1.9-1-4.2-0.2-5.2,1.7c-0.3,0.6-0.4,1.3-0.4,2l1.9,30.7c0.1,2.1,2,3.8,4.1,3.6
		c0.7,0,1.3-0.3,1.9-0.6l25.7-17c1.8-1.2,2.3-3.6,1.1-5.4C685.9,1078.7,685.3,1078.2,684.7,1077.9z"/>
	<path class="st4" d="M697,1077.2l-27.6-13.7c-1.9-1-4.2-0.2-5.2,1.7c-0.3,0.6-0.4,1.3-0.4,2l1.9,30.7c0.1,2.1,2,3.8,4.1,3.6
		c0.7,0,1.3-0.3,1.9-0.6l25.7-17c1.8-1.2,2.3-3.6,1.1-5.4C698.2,1078,697.6,1077.5,697,1077.2z"/>
	<circle class="st5" cx="768.4" cy="583.9" r="21.6"/>
	<path class="st6" d="M795.9,579.6c0,12.9-10.5,23.3-23.3,23.2c-12.9,0-23.3-10.5-23.2-23.3c0-12.9,10.5-23.3,23.3-23.2
		c3.9,0,7.7,1,11.1,2.8l0,0C791.3,563.3,795.9,571.1,795.9,579.6z M752.8,579.6c0,1.9,0.3,3.8,0.8,5.6c3.1,10.4,14.1,16.4,24.5,13.3
		c10.4-3.1,16.4-14.1,13.3-24.5s-14.1-16.4-24.5-13.3C758.6,563.2,752.8,570.8,752.8,579.6z"/>
	<circle class="st3" cx="724.6" cy="777.8" r="11.3"/>
	<path class="st7" d="M738.1,774.6c0,6.9-5.6,12.4-12.4,12.4s-12.4-5.6-12.4-12.4s5.6-12.4,12.4-12.4h0
		C732.5,762.2,738.1,767.7,738.1,774.6z M715.5,774.6c0,5.6,4.5,10.2,10.2,10.2s10.2-4.5,10.2-10.2c0-5.6-4.5-10.2-10.2-10.2
		C720,764.5,715.5,769,715.5,774.6z"/>
	<path class="st7" d="M1085.3,1091.5c0,6.9-5.6,12.4-12.4,12.4s-12.4-5.6-12.4-12.4c0-6.9,5.6-12.4,12.4-12.4
		C1079.7,1079.1,1085.3,1084.7,1085.3,1091.5z M1062.7,1091.5c0,5.6,4.5,10.2,10.2,10.2c5.6,0,10.2-4.5,10.2-10.2
		c0-5.6-4.5-10.2-10.2-10.2l0,0C1067.3,1081.4,1062.7,1085.9,1062.7,1091.5z"/>
	<circle class="st8" cx="1157.1" cy="631.9" r="17.4"/>
	<path class="st9" d="M1177.5,627.2c0,10.5-8.5,19.1-19.1,19.1c-10.5,0-19.1-8.5-19.1-19.1c0-10.5,8.5-19.1,19.1-19.1l0,0
		C1168.9,608.2,1177.5,616.7,1177.5,627.2z M1142.8,627.2c0,8.6,7,15.6,15.6,15.6c8.6,0,15.6-7,15.6-15.6c0-8.6-7-15.6-15.6-15.6
		C1149.8,611.6,1142.8,618.6,1142.8,627.2L1142.8,627.2z"/>
	<path class="st1" d="M888.4,731l-5.4-15.5c-0.5-1.4,0.2-2.9,1.6-3.4l15.5-5.4c1.4-0.5,2.9,0.2,3.4,1.6l5.4,15.5
		c0.5,1.4-0.2,2.9-1.6,3.4l-15.5,5.4C890.4,733.1,888.8,732.4,888.4,731z"/>
	<path class="st2" d="M917.1,725.9c0,1.6-1,3.1-2.6,3.6l-15.5,5.4c-2,0.7-4.2-0.4-4.8-2.3c0,0,0,0,0,0l-5.4-15.5
		c-0.7-2,0.4-4.2,2.3-4.8c0,0,0,0,0,0l15.5-5.4c2-0.7,4.2,0.4,4.8,2.3l5.4,15.5C917,725,917.1,725.5,917.1,725.9z M890.8,715.8
		c0,0.2,0,0.3,0.1,0.5l5.4,15.5c0.3,0.8,1.1,1.2,1.9,0.9c0,0,0,0,0,0l15.5-5.4c0.8-0.3,1.2-1.1,0.9-1.9l-5.4-15.5
		c-0.3-0.8-1.1-1.2-1.9-0.9l-15.5,5.4C891.2,714.6,890.8,715.1,890.8,715.8L890.8,715.8z"/>
	<path class="st5" d="M845.2,953l-20.9-2.8c-1.5-0.2-2.8,0.8-3,2.3c-0.1,0.5,0,0.9,0.2,1.4l8,19.5c0.6,1.4,2.1,2,3.5,1.4
		c0.4-0.2,0.8-0.5,1.1-0.8l12.9-16.7c0.9-1.2,0.7-2.8-0.5-3.7C846.1,953.3,845.6,953.1,845.2,953z"/>
	<path class="st6" d="M843.6,954.8c0,1-0.3,1.9-0.9,2.7l-12.9,16.7c-1.5,1.9-4.2,2.3-6.1,0.8c-0.6-0.5-1.1-1.1-1.4-1.8l-8-19.5
		c-0.9-2.2,0.1-4.8,2.4-5.7c0.7-0.3,1.5-0.4,2.2-0.3l20.9,2.8c1.6,0.2,2.9,1.2,3.5,2.7C843.5,953.7,843.6,954.3,843.6,954.8z
		 M817.4,952c0,0.1,0,0.2,0.1,0.4l8,19.5c0.2,0.5,0.7,0.7,1.2,0.5c0.2-0.1,0.3-0.2,0.4-0.3l12.9-16.7c0.3-0.4,0.2-1-0.2-1.3
		c-0.1-0.1-0.3-0.2-0.4-0.2v0l-20.9-2.8c-0.3,0-0.7,0.1-0.9,0.4C817.5,951.6,817.4,951.8,817.4,952L817.4,952z M839.6,952.2
		L839.6,952.2z"/>
	<path class="st10" d="M996,940.7l-21.9-2.9c-1.5-0.2-2.9,0.9-3.1,2.4c-0.1,0.5,0,1,0.2,1.4l8.4,20.4c0.6,1.4,2.2,2.1,3.6,1.5
		c0.5-0.2,0.8-0.5,1.1-0.9l13.5-17.5c0.9-1.2,0.7-3-0.5-3.9C996.9,940.9,996.4,940.7,996,940.7z"/>
	<path class="st11" d="M1008.3,940.1c0,1-0.3,1.9-0.9,2.7l-13.5,17.5c-1.5,2-4.3,2.3-6.3,0.8c-0.6-0.5-1.1-1.1-1.4-1.9l-8.4-20.4
		c-0.9-2.3,0.1-4.9,2.4-5.9c0.7-0.3,1.5-0.4,2.3-0.3l21.9,2.9c1.6,0.2,3,1.3,3.6,2.7C1008.2,938.9,1008.3,939.5,1008.3,940.1z
		 M980.8,937.2c0,0.1,0,0.3,0.1,0.4l8.4,20.4c0.2,0.5,0.8,0.8,1.4,0.6c0.2-0.1,0.3-0.2,0.4-0.3l13.5-17.5c0.4-0.5,0.3-1.1-0.2-1.5
		c-0.1-0.1-0.3-0.2-0.5-0.2l-21.9-2.9c-0.4-0.1-0.8,0.1-1,0.4C980.9,936.7,980.8,936.9,980.8,937.2z"/>
	<path class="st10" d="M951.5,550.2l-14.7,27.1c-1,1.9-0.3,4.2,1.6,5.3c0.6,0.3,1.3,0.5,2,0.5l30.8-0.8c2.1-0.1,3.8-1.8,3.8-4
		c0-0.7-0.2-1.3-0.6-1.9L958.2,550c-1.1-1.8-3.5-2.4-5.3-1.3C952.3,549.1,951.8,549.6,951.5,550.2z"/>
	<path class="st10" d="M1290.1,703.1c0.2,0.5,0,1.2-0.6,1.4c0,0,0,0,0,0l-22.7,9.6c-0.5,0.2-1.2,0-1.4-0.6s0-1.2,0.6-1.4l22.7-9.6
		C1289.2,702.3,1289.9,702.6,1290.1,703.1C1290.1,703.1,1290.1,703.1,1290.1,703.1z"/>
	<path class="st10" d="M1293.1,693.7c0.2,0.5,0,1.2-0.6,1.4c0,0,0,0,0,0l-22.7,9.6c-0.5,0.2-1.2,0-1.4-0.6s0-1.2,0.6-1.4l0,0
		l22.7-9.6C1292.2,692.9,1292.8,693.1,1293.1,693.7C1293.1,693.7,1293.1,693.7,1293.1,693.7z"/>
	<path class="st10" d="M1283.8,688.3c0.2,0.5,0,1.2-0.6,1.4c0,0,0,0,0,0l-22.7,9.6c-0.5,0.2-1.2,0-1.4-0.6s0-1.2,0.6-1.4l22.7-9.6
		C1283,687.5,1283.6,687.8,1283.8,688.3C1283.8,688.3,1283.8,688.3,1283.8,688.3z"/>
	<path class="st11" d="M1288.6,705.8c0,0.5-0.3,0.9-0.7,1.1l-22.7,9.6c-0.6,0.2-1.3,0-1.5-0.6c-0.2-0.6,0-1.3,0.6-1.5l22.7-9.6
		c0.6-0.2,1.3,0,1.5,0.6c0,0,0,0,0,0C1288.6,705.5,1288.6,705.6,1288.6,705.8z"/>
	<path class="st11" d="M1291.6,696.4c0,0.5-0.3,0.9-0.7,1.1l-22.6,9.6c-0.6,0.2-1.3,0-1.5-0.6c-0.2-0.6,0-1.3,0.6-1.5l0,0l22.6-9.6
		c0.6-0.2,1.3,0,1.5,0.6c0,0,0,0,0,0C1291.6,696,1291.6,696.2,1291.6,696.4z"/>
	<path class="st11" d="M1282.3,691c0,0.5-0.3,0.9-0.7,1.1l-22.7,9.6c-0.6,0.2-1.3,0-1.5-0.6c-0.2-0.6,0-1.3,0.6-1.5l0,0l22.7-9.6
		c0.6-0.2,1.3,0,1.5,0.6c0,0,0,0,0,0C1282.3,690.7,1282.3,690.8,1282.3,691z"/>
	<path class="st5" d="M1166.2,968.6c-0.1,0.3-0.3,0.5-0.6,0.6l-3.4,1.3c-1.3,0.5-2.8-0.2-3.3-1.5l-1.3-3.4c-0.1-0.2-0.3-0.3-0.6-0.3
		c0,0,0,0,0,0l-2.8,1.2c-1.3,0.6-2.8,0-3.4-1.3c0,0,0-0.1-0.1-0.1l-1.2-3.1c0-0.1-0.1-0.2-0.2-0.3c-0.1,0-0.2-0.1-0.3,0l-3.1,1.2
		c-1.3,0.5-2.8-0.1-3.4-1.4c0,0,0,0,0,0l-1.4-3.6c-0.2-0.5,0-1.2,0.6-1.4c0.5-0.2,1.2,0,1.4,0.6l1.4,3.6c0,0.1,0.1,0.2,0.2,0.2
		c0.1,0,0.2,0,0.3,0l3.1-1.2c1.3-0.5,2.8,0.1,3.4,1.4c0,0,0,0.1,0,0.1l1.2,3.1c0.1,0.2,0.3,0.3,0.6,0.3c0,0,0,0,0,0l2.8-1.2
		c1.3-0.6,2.8,0,3.4,1.3c0,0,0,0.1,0,0.1l1.3,3.4c0.1,0.2,0.3,0.3,0.6,0.3l3.4-1.3c0.6-0.2,1.2,0.1,1.4,0.6
		C1166.3,968,1166.3,968.3,1166.2,968.6z"/>
	<path class="st6" d="M1166.1,966c0,0.5-0.3,0.9-0.7,1.1l-3.4,1.3c-1.4,0.5-2.9-0.2-3.4-1.5l-1.3-3.4c-0.1-0.2-0.3-0.3-0.5-0.2
		c0,0,0,0,0,0l-2.8,1.2c-1.3,0.6-2.9,0-3.5-1.4c0,0,0-0.1-0.1-0.1l-1.2-3.1c-0.1-0.2-0.3-0.3-0.5-0.2c0,0,0,0,0,0l-3.1,1.3
		c-1.4,0.6-2.9-0.1-3.5-1.5c0,0,0,0,0,0l-1.4-3.6c-0.2-0.6,0-1.3,0.6-1.5c0.6-0.2,1.3,0,1.5,0.6l1.4,3.6c0,0.1,0.1,0.2,0.2,0.2
		c0.1,0,0.2,0,0.3,0l3.1-1.3c1.4-0.6,2.9,0.1,3.5,1.5c0,0,0,0.1,0,0.1l1.2,3.1c0.1,0.2,0.3,0.3,0.5,0.2c0,0,0,0,0,0l2.8-1.2
		c1.3-0.6,2.9,0,3.5,1.4c0,0,0,0.1,0,0.1l1.3,3.4c0.1,0.2,0.3,0.3,0.5,0.2l3.4-1.3c0.6-0.2,1.3,0.1,1.5,0.7c0,0,0,0,0,0
		C1166.1,965.7,1166.1,965.9,1166.1,966z"/>
	<path class="st12" d="M1221.3,829.3c0.3,0.3,0.4,0.8,0.3,1.2l-0.7,5.5c-0.3,2.1-2.2,3.6-4.3,3.4l-5.5-0.5c-0.4,0-0.7,0.2-0.8,0.6
		c0,0,0,0,0,0l-0.3,4.7c-0.1,2.2-2,3.8-4.2,3.6c-0.1,0-0.1,0-0.2,0l-5.1-0.6c-0.4,0-0.7,0.2-0.8,0.6c0,0,0,0,0,0l-0.4,5
		c-0.2,2.2-2.1,3.7-4.2,3.6c0,0,0,0,0,0l-5.8-0.5c-0.9-0.1-1.5-0.9-1.5-1.7c0.1-0.9,0.9-1.5,1.7-1.5l5.8,0.5c0.4,0,0.7-0.3,0.8-0.6
		l0.4-5c0.2-2.2,2.1-3.7,4.2-3.6c0,0,0.1,0,0.1,0l5.1,0.6c0.4,0,0.7-0.2,0.8-0.6c0,0,0,0,0,0l0.3-4.7c0.1-2.2,2-3.8,4.2-3.6
		c0,0,0.1,0,0.1,0l5.5,0.5c0.4,0,0.7-0.2,0.8-0.6l0.7-5.5c0.1-0.9,0.9-1.5,1.8-1.4C1220.7,828.8,1221.1,829,1221.3,829.3z"/>
	<path class="st13" d="M1218.6,829.5c0,0.1,0,0.1,0,0.2l-0.7,5.5c-0.3,2.2-2.2,3.7-4.4,3.5l-5.5-0.5c-0.3,0-0.6,0.2-0.6,0.5
		c0,0,0,0,0,0l-0.3,4.7c-0.1,2.2-2.1,3.9-4.3,3.8c-0.1,0-0.1,0-0.2,0l-5.1-0.6c-0.3,0-0.6,0.2-0.7,0.5c0,0,0,0,0,0l-0.4,5
		c-0.2,2.2-2.1,3.9-4.4,3.7c0,0,0,0,0,0l-5.8-0.5c-0.9-0.1-1.6-0.9-1.6-1.9c0.1-0.9,0.9-1.6,1.9-1.6l0,0l5.8,0.5
		c0.2,0,0.3,0,0.4-0.1c0.1-0.1,0.2-0.2,0.2-0.4l0.4-5c0.2-2.2,2.1-3.9,4.4-3.7c0,0,0.1,0,0.1,0l5.1,0.6c0.3,0,0.6-0.2,0.7-0.5
		c0,0,0,0,0,0l0.3-4.7c0.1-2.2,2.1-3.9,4.3-3.8c0,0,0.1,0,0.1,0l5.5,0.5c0.3,0,0.6-0.2,0.6-0.5l0.7-5.5c0.1-0.9,1-1.6,1.9-1.5
		C1218,827.9,1218.6,828.7,1218.6,829.5z"/>
	<path class="st1" d="M866.8,1076.4c0.1,0.3,0.1,0.6,0,0.8l-1.3,3.4c-0.5,1.3-1.9,2-3.3,1.5l-3.4-1.2c-0.2-0.1-0.5,0-0.6,0.3
		c0,0,0,0,0,0l-0.9,3c-0.4,1.4-1.9,2.1-3.2,1.7c0,0-0.1,0-0.1,0l-3.1-1.2c-0.1,0-0.2,0-0.3,0c-0.1,0.1-0.2,0.1-0.2,0.3l-1.1,3.1
		c-0.5,1.4-1.9,2.1-3.3,1.6c0,0,0,0,0,0l-3.6-1.2c-0.6-0.2-0.9-0.8-0.7-1.4c0.2-0.6,0.8-0.9,1.3-0.7l3.6,1.2c0.1,0,0.2,0,0.3,0
		c0.1-0.1,0.2-0.1,0.2-0.3l1.1-3.1c0.5-1.4,1.9-2.1,3.3-1.6c0,0,0.1,0,0.1,0l3.1,1.2c0.2,0.1,0.5,0,0.6-0.3c0,0,0,0,0,0l0.9-3
		c0.4-1.4,1.9-2.1,3.2-1.7c0,0,0.1,0,0.1,0l3.4,1.2c0.2,0.1,0.5,0,0.6-0.3l1.3-3.4c0.2-0.6,0.8-0.8,1.4-0.6
		C866.5,1075.9,866.7,1076.1,866.8,1076.4z"/>
	<path class="st2" d="M866.4,1075.4c0,0.1,0,0.3-0.1,0.4l-1.3,3.4c-0.5,1.3-2,2-3.4,1.5l-3.4-1.3c-0.2-0.1-0.4,0-0.5,0.2
		c0,0,0,0,0,0l-1,2.9c-0.5,1.4-2,2.1-3.4,1.7c0,0-0.1,0-0.1-0.1l-3.1-1.2c-0.2-0.1-0.4,0-0.5,0.2c0,0,0,0,0,0l-1.1,3.1
		c-0.5,1.4-2,2.1-3.4,1.6c0,0,0,0,0,0l-3.6-1.3c-0.6-0.2-0.9-0.9-0.7-1.5c0.2-0.6,0.9-0.9,1.5-0.7c0,0,0,0,0,0l3.6,1.3
		c0.1,0,0.2,0,0.3,0c0.1,0,0.2-0.1,0.2-0.2l1.1-3.1c0.5-1.4,2-2.1,3.4-1.6c0,0,0.1,0,0.1,0l3.1,1.2c0.2,0.1,0.4,0,0.5-0.2
		c0,0,0,0,0,0l1-2.9c0.5-1.4,2-2.1,3.4-1.7c0,0,0.1,0,0.1,0l3.4,1.3c0.2,0.1,0.4,0,0.5-0.2l1.3-3.4c0.2-0.6,0.9-0.9,1.5-0.6
		C866.1,1074.5,866.4,1074.9,866.4,1075.4z"/>
	<path class="st8" d="M1308.8,902.5l8.8-23c0.8-2.1,3.1-3.1,5.1-2.3l23,8.8c2.1,0.8,3.1,3.1,2.3,5.1l-8.8,23
		c-0.8,2.1-3.1,3.1-5.1,2.3l-23-8.8C1309.1,906.8,1308,904.5,1308.8,902.5z"/>
	<path class="st9" d="M1356.7,897.7c0,0.7-0.1,1.4-0.4,2l-8.8,23c-1.1,2.9-4.4,4.4-7.4,3.3l-23-8.8c-2.9-1.1-4.4-4.4-3.3-7.4
		c0,0,0,0,0,0l8.8-23c1.1-2.9,4.4-4.4,7.4-3.3l0,0l23,8.8C1355.3,893.2,1356.7,895.3,1356.7,897.7z M1353.1,898.5
		c0.4-1.2-0.1-2.5-1.3-2.9l-23-8.8c-1.2-0.4-2.5,0.1-2.9,1.3l-8.8,23c-0.4,1.2,0.1,2.5,1.3,2.9c0,0,0,0,0,0l23,8.8
		c1.2,0.4,2.5-0.1,2.9-1.3L1353.1,898.5z"/>
	<path class="st11" d="M976.3,566c0,3-2.4,5.5-5.5,5.6l-30.8,0.8c-3.1,0.1-5.7-2.4-5.7-5.4c0-1,0.2-2,0.7-2.8l14.7-27.1l0,0
		c1.5-2.7,4.9-3.7,7.6-2.2c0.9,0.5,1.6,1.2,2.1,2l16.1,26.3C976,563.9,976.3,564.9,976.3,566z M937.7,566.7c0,0.4,0.1,0.8,0.3,1.1
		c0.4,0.7,1.1,1.1,1.9,1l30.8-0.8c1.2,0,2.1-1,2.1-2.2c0-0.4-0.1-0.7-0.3-1.1l-16.1-26.3c-0.6-1-2-1.3-3-0.7
		c-0.3,0.2-0.6,0.5-0.8,0.8l0,0L938,565.7C937.8,566,937.8,566.4,937.7,566.7L937.7,566.7z"/>
</g>
<g class="st0">
	<path class="st1" d="M1753.4,839.4l7.8-23.3c0.7-2.1,2.9-3.2,5-2.5l23.3,7.8c2.1,0.7,3.2,2.9,2.5,5l-7.8,23.3
		c-0.7,2.1-2.9,3.2-5,2.5l-23.3-7.8C1753.9,843.7,1752.7,841.5,1753.4,839.4z"/>
	<path class="st2" d="M1798.3,832.3c0,0.6-0.1,1.2-0.3,1.8l-7.8,23.3c-1,3-4.2,4.6-7.2,3.6c0,0,0,0,0,0l-23.3-7.8
		c-3-1-4.6-4.2-3.6-7.2l7.8-23.3c1-3,4.2-4.6,7.2-3.6c0,0,0,0,0,0l23.3,7.8C1796.7,827.7,1798.3,829.9,1798.3,832.3z M1759.3,847.8
		c0,1,0.6,1.8,1.5,2.1l23.3,7.8c1.2,0.4,2.5-0.2,2.9-1.4l7.8-23.3c0.4-1.2-0.2-2.5-1.4-2.9l-23.3-7.8c-1.2-0.4-2.5,0.2-2.9,1.4
		l-7.8,23.3C1759.3,847.3,1759.3,847.5,1759.3,847.8z"/>
	
		<ellipse transform="matrix(0.4794 -0.8776 0.8776 0.4794 206.9439 1633.9539)" class="st5" cx="1480.6" cy="642.6" rx="21.6" ry="21.6"/>
	<path class="st6" d="M1508.2,638.3c0,12.9-10.5,23.3-23.3,23.2c-12.9,0-23.3-10.5-23.2-23.3c0-12.9,10.5-23.3,23.3-23.2
		c3.9,0,7.7,1,11.1,2.8l0,0C1503.5,621.9,1508.2,629.8,1508.2,638.3z M1465,638.2c0,1.9,0.3,3.8,0.8,5.6
		c3.1,10.4,14.1,16.4,24.5,13.3c10.4-3.1,16.4-14.1,13.3-24.5c-3.1-10.4-14.1-16.4-24.5-13.3C1470.8,621.8,1465,629.5,1465,638.2z"
		/>
	<circle class="st3" cx="1436.8" cy="836.5" r="11.3"/>
	<path class="st7" d="M1450.3,833.3c0,6.9-5.6,12.4-12.4,12.4c-6.9,0-12.4-5.6-12.4-12.4c0-6.9,5.6-12.4,12.4-12.4c0,0,0,0,0,0
		C1444.8,820.8,1450.3,826.4,1450.3,833.3z M1427.7,833.3c0,5.6,4.5,10.2,10.2,10.2s10.2-4.5,10.2-10.2c0-5.6-4.5-10.2-10.2-10.2
		C1432.3,823.1,1427.7,827.7,1427.7,833.3z"/>
	<circle class="st8" cx="1869.3" cy="690.6" r="17.4"/>
	<path class="st9" d="M1889.7,685.9c0,10.5-8.5,19.1-19.1,19.1c-10.5,0-19.1-8.5-19.1-19.1c0-10.5,8.5-19.1,19.1-19.1l0,0
		C1881.2,666.8,1889.7,675.4,1889.7,685.9z M1855,685.9c0,8.6,7,15.6,15.6,15.6c8.6,0,15.6-7,15.6-15.6c0-8.6-7-15.6-15.6-15.6
		C1862,670.3,1855,677.3,1855,685.9z"/>
	<path class="st1" d="M1600.6,789.6l-5.4-15.5c-0.5-1.4,0.2-2.9,1.6-3.4l15.5-5.4c1.4-0.5,2.9,0.2,3.4,1.6l5.4,15.5
		c0.5,1.4-0.2,2.9-1.6,3.4l-15.5,5.4C1602.6,791.8,1601.1,791,1600.6,789.6z"/>
	<path class="st2" d="M1629.3,784.6c0,1.6-1,3.1-2.6,3.6l-15.5,5.4c-2,0.7-4.2-0.4-4.8-2.3c0,0,0,0,0,0l-5.4-15.5
		c-0.7-2,0.4-4.2,2.3-4.8c0,0,0,0,0,0l15.5-5.4c2-0.7,4.2,0.4,4.8,2.3l5.4,15.5C1629.2,783.7,1629.3,784.1,1629.3,784.6z
		 M1603,774.4c0,0.2,0,0.3,0.1,0.5l5.4,15.5c0.3,0.8,1.1,1.2,1.9,0.9c0,0,0,0,0,0l15.5-5.4c0.8-0.3,1.2-1.1,0.9-1.9l-5.4-15.5
		c-0.3-0.8-1.1-1.2-1.9-0.9l-15.5,5.4C1603.4,773.2,1603,773.8,1603,774.4L1603,774.4z"/>
	<path class="st5" d="M1557.4,1011.7l-20.9-2.8c-1.5-0.2-2.8,0.8-3,2.3c-0.1,0.5,0,0.9,0.2,1.4l8,19.5c0.6,1.4,2.1,2,3.5,1.4
		c0.4-0.2,0.8-0.5,1.1-0.8l12.9-16.7c0.9-1.2,0.7-2.8-0.5-3.7C1558.3,1011.9,1557.8,1011.7,1557.4,1011.7z"/>
	<path class="st6" d="M1555.9,1013.5c0,1-0.3,1.9-0.9,2.7l-12.9,16.7c-1.5,1.9-4.2,2.3-6.1,0.8c-0.6-0.5-1.1-1.1-1.4-1.8l-8-19.5
		c-0.9-2.2,0.1-4.8,2.4-5.7c0.7-0.3,1.5-0.4,2.2-0.3l20.9,2.8c1.6,0.2,2.9,1.2,3.5,2.7C1555.8,1012.4,1555.9,1012.9,1555.9,1013.5z
		 M1529.7,1010.7c0,0.1,0,0.2,0.1,0.4l8,19.5c0.2,0.5,0.7,0.7,1.2,0.5c0.2-0.1,0.3-0.2,0.4-0.3l12.9-16.7c0.3-0.4,0.2-1-0.2-1.3
		c-0.1-0.1-0.3-0.2-0.4-0.2v0l-20.9-2.8c-0.3,0-0.7,0.1-0.9,0.4C1529.7,1010.3,1529.7,1010.5,1529.7,1010.7z M1551.8,1010.9
		L1551.8,1010.9z"/>
	<path class="st10" d="M1708.2,999.3l-21.9-2.9c-1.5-0.2-2.9,0.9-3.1,2.4c-0.1,0.5,0,1,0.2,1.4l8.4,20.4c0.6,1.4,2.2,2.1,3.6,1.5
		c0.5-0.2,0.8-0.5,1.1-0.9l13.5-17.5c0.9-1.2,0.7-3-0.5-3.9C1709.1,999.6,1708.7,999.4,1708.2,999.3z"/>
	<path class="st11" d="M1720.5,998.8c0,1-0.3,1.9-0.9,2.7l-13.5,17.5c-1.5,2-4.3,2.3-6.3,0.8c-0.6-0.5-1.1-1.1-1.4-1.9l-8.4-20.4
		c-0.9-2.3,0.1-4.9,2.4-5.9c0.7-0.3,1.5-0.4,2.3-0.3l21.9,2.9c1.6,0.2,3,1.3,3.6,2.7C1720.4,997.6,1720.5,998.2,1720.5,998.8z
		 M1693,995.9c0,0.1,0,0.3,0.1,0.4l8.4,20.4c0.2,0.5,0.8,0.8,1.4,0.6c0.2-0.1,0.3-0.2,0.4-0.3l13.5-17.5c0.4-0.5,0.3-1.1-0.2-1.5
		c-0.1-0.1-0.3-0.2-0.5-0.2l-21.9-2.9c-0.4-0.1-0.8,0.1-1,0.4C1693.1,995.4,1693,995.6,1693,995.9z"/>
	<path class="st10" d="M1663.7,608.8l-14.7,27.1c-1,1.9-0.3,4.2,1.6,5.3c0.6,0.3,1.3,0.5,2,0.5l30.8-0.8c2.1-0.1,3.8-1.8,3.8-4
		c0-0.7-0.2-1.3-0.6-1.9l-16.1-26.3c-1.1-1.8-3.5-2.4-5.3-1.3C1664.5,607.7,1664,608.2,1663.7,608.8z"/>
	<path class="st5" d="M1878.4,1027.2c-0.1,0.3-0.3,0.5-0.6,0.6l-3.4,1.3c-1.3,0.5-2.8-0.2-3.3-1.5l-1.3-3.4
		c-0.1-0.2-0.3-0.3-0.6-0.3c0,0,0,0,0,0l-2.8,1.2c-1.3,0.6-2.8,0-3.4-1.3c0,0,0-0.1-0.1-0.1l-1.2-3.1c0-0.1-0.1-0.2-0.2-0.3
		c-0.1,0-0.2-0.1-0.3,0l-3.1,1.2c-1.3,0.5-2.8-0.1-3.4-1.4c0,0,0,0,0,0l-1.4-3.6c-0.2-0.5,0-1.2,0.6-1.4c0.5-0.2,1.2,0,1.4,0.6l0,0
		l1.4,3.6c0,0.1,0.1,0.2,0.2,0.2c0.1,0,0.2,0,0.3,0l3.1-1.2c1.3-0.5,2.8,0.1,3.4,1.4c0,0,0,0.1,0,0.1l1.2,3.1
		c0.1,0.2,0.3,0.3,0.6,0.3c0,0,0,0,0,0l2.8-1.2c1.3-0.6,2.8,0,3.4,1.3c0,0,0,0.1,0,0.1l1.3,3.4c0.1,0.2,0.3,0.3,0.6,0.3l3.4-1.3
		c0.6-0.2,1.2,0.1,1.4,0.6C1878.6,1026.7,1878.6,1027,1878.4,1027.2z"/>
	<path class="st6" d="M1878.4,1024.7c0,0.5-0.3,0.9-0.7,1.1l-3.4,1.3c-1.4,0.5-2.9-0.2-3.4-1.5l-1.3-3.4c-0.1-0.2-0.3-0.3-0.5-0.2
		c0,0,0,0,0,0l-2.8,1.2c-1.3,0.6-2.9,0-3.5-1.4c0,0,0-0.1-0.1-0.1l-1.2-3.1c-0.1-0.2-0.3-0.3-0.5-0.2c0,0,0,0,0,0l-3.1,1.3
		c-1.4,0.6-2.9-0.1-3.5-1.5c0,0,0,0,0,0l-1.4-3.6c-0.2-0.6,0-1.3,0.6-1.5c0.6-0.2,1.3,0,1.5,0.6l1.4,3.6c0,0.1,0.1,0.2,0.2,0.2
		c0.1,0,0.2,0,0.3,0l3.1-1.3c1.4-0.6,2.9,0.1,3.5,1.5c0,0,0,0.1,0,0.1l1.2,3.1c0.1,0.2,0.3,0.3,0.5,0.2c0,0,0,0,0,0l2.8-1.2
		c1.3-0.6,2.9,0,3.5,1.4c0,0,0,0.1,0,0.1l1.3,3.4c0.1,0.2,0.3,0.3,0.5,0.2l3.4-1.3c0.6-0.2,1.3,0.1,1.5,0.7c0,0,0,0,0,0
		C1878.3,1024.4,1878.4,1024.5,1878.4,1024.7z"/>
	<path class="st11" d="M1688.5,624.6c0,3-2.4,5.5-5.5,5.6l-30.8,0.8c-3.1,0.1-5.7-2.4-5.7-5.4c0-1,0.2-2,0.7-2.8l14.7-27.1l0,0
		c1.5-2.7,4.9-3.7,7.6-2.2c0.9,0.5,1.6,1.2,2.1,2l16.1,26.3C1688.3,622.6,1688.5,623.6,1688.5,624.6z M1650,625.4
		c0,0.4,0.1,0.8,0.3,1.1c0.4,0.7,1.1,1.1,1.9,1l30.8-0.8c1.2,0,2.1-1,2.1-2.2c0-0.4-0.1-0.7-0.3-1.1l-16.1-26.3c-0.6-1-2-1.3-3-0.7
		c-0.3,0.2-0.6,0.5-0.8,0.8l0,0l-14.7,27.1C1650.1,624.7,1650,625.1,1650,625.4L1650,625.4z"/>
</g>
<g class="st0">
	
		<ellipse transform="matrix(0.8822 -0.4708 0.4708 0.8822 -158.2909 329.3861)" class="st1" cx="579.3" cy="481.1" rx="11.3" ry="11.3"/>
	<path class="st2" d="M591.1,477.7c0,6.9-5.6,12.5-12.4,12.5c-6.9,0-12.5-5.6-12.5-12.4c0-4.6,2.5-8.8,6.6-11l0,0
		c6.1-3.2,13.6-0.9,16.8,5.1C590.6,473.7,591.1,475.7,591.1,477.7z M568.5,477.8c0,5.6,4.6,10.2,10.2,10.2c5.6,0,10.2-4.6,10.2-10.2
		c0-5.6-4.6-10.2-10.2-10.2c-4.5,0-8.4,2.9-9.8,7.2C568.7,475.8,568.5,476.8,568.5,477.8L568.5,477.8z"/>
	<path class="st1" d="M393,192.7l7.8-23.3c0.7-2.1,2.9-3.2,5-2.5l23.3,7.8c2.1,0.7,3.2,2.9,2.5,5l-7.8,23.3c-0.7,2.1-2.9,3.2-5,2.5
		l-23.3-7.8C393.4,197.1,392.3,194.8,393,192.7z"/>
	<path class="st2" d="M437.8,185.6c0,0.6-0.1,1.2-0.3,1.8l-7.8,23.3c-1,3-4.2,4.6-7.2,3.6c0,0,0,0,0,0l-23.3-7.8
		c-3-1-4.6-4.2-3.6-7.2l7.8-23.3c1-3,4.2-4.6,7.2-3.6c0,0,0,0,0,0l23.3,7.8C436.3,181,437.8,183.2,437.8,185.6z M398.8,201.1
		c0,1,0.6,1.8,1.5,2.1l23.3,7.8c1.2,0.4,2.5-0.2,2.9-1.4l7.8-23.3c0.4-1.2-0.2-2.5-1.4-2.9l-23.3-7.8c-1.2-0.4-2.5,0.2-2.9,1.4
		l-7.8,23.3C398.9,200.6,398.8,200.9,398.8,201.1z"/>
	<path class="st3" d="M36.5,489.9L8.9,476.2c-1.9-1-4.2-0.2-5.2,1.7c-0.3,0.6-0.4,1.3-0.4,2l1.9,30.7c0.1,2.1,2,3.8,4.1,3.6
		c0.7,0,1.3-0.3,1.9-0.6l25.7-17c1.8-1.2,2.3-3.6,1.1-5.4C37.7,490.7,37.1,490.2,36.5,489.9z"/>
	<path class="st4" d="M48.8,489.2l-27.6-13.7c-1.9-1-4.2-0.2-5.2,1.7c-0.3,0.6-0.4,1.3-0.4,2l1.9,30.7c0.1,2.1,2,3.8,4.1,3.6
		c0.7,0,1.3-0.3,1.9-0.6l25.7-17c1.8-1.2,2.3-3.6,1.1-5.4C50,490,49.4,489.5,48.8,489.2z"/>
	<circle class="st5" cx="120.2" cy="-4.1" r="21.6"/>
	<path class="st6" d="M147.7-8.4c0,3.9-1,7.7-2.8,11.1c-6.2,11.3-20.3,15.4-31.6,9.3C102,5.9,97.9-8.3,104-19.6
		c6.2-11.3,20.3-15.4,31.6-9.3l0,0C143.1-24.7,147.7-16.9,147.7-8.4z M104.6-8.4c0,1.9,0.3,3.8,0.8,5.6c1.5,5.1,4.9,9.3,9.5,11.8
		c9.6,5.2,21.7,1.7,26.9-7.9c2.5-4.6,3.1-10.1,1.6-15.1c-1.5-5.1-4.9-9.3-9.5-11.8c-9.6-5.2-21.7-1.7-26.9,7.9
		C105.4-15,104.6-11.7,104.6-8.4L104.6-8.4z"/>
	<circle class="st3" cx="76.4" cy="189.8" r="11.3"/>
	<path class="st7" d="M89.9,186.6c0,6.9-5.6,12.4-12.4,12.4c-6.9,0-12.4-5.6-12.4-12.4c0-6.9,5.6-12.4,12.4-12.4c0,0,0,0,0,0
		C84.3,174.2,89.9,179.7,89.9,186.6z M67.3,186.6c0,5.6,4.5,10.2,10.2,10.2c5.6,0,10.2-4.5,10.2-10.2c0-5.6-4.5-10.2-10.2-10.2
		C71.8,176.5,67.3,181,67.3,186.6z"/>
	<circle class="st3" cx="423.6" cy="506.7" r="11.3"/>
	<path class="st7" d="M437.1,503.5c0,6.9-5.6,12.4-12.4,12.4s-12.4-5.6-12.4-12.4c0-6.9,5.6-12.4,12.4-12.4
		C431.5,491.1,437.1,496.7,437.1,503.5z M414.5,503.5c0,5.6,4.5,10.2,10.2,10.2s10.2-4.5,10.2-10.2s-4.5-10.2-10.2-10.2l0,0
		C419.1,493.4,414.5,497.9,414.5,503.5z"/>
	
		<ellipse transform="matrix(0.2238 -0.9746 0.9746 0.2238 352.1934 530.0332)" class="st8" cx="508.9" cy="43.9" rx="17.4" ry="17.4"/>
	<path class="st9" d="M529.3,39.2c0,10.5-8.5,19.1-19.1,19.1s-19.1-8.5-19.1-19.1s8.5-19.1,19.1-19.1
		C520.7,20.2,529.3,28.7,529.3,39.2z M494.6,39.2c0,8.6,7,15.6,15.6,15.6s15.6-7,15.6-15.6s-7-15.6-15.6-15.6l0,0
		C501.6,23.6,494.6,30.6,494.6,39.2L494.6,39.2z"/>
	<path class="st1" d="M240.1,143l-5.4-15.5c-0.5-1.4,0.2-2.9,1.6-3.4l15.5-5.4c1.4-0.5,2.9,0.2,3.4,1.6l5.4,15.5
		c0.5,1.4-0.2,2.9-1.6,3.4l-15.5,5.4C242.1,145.1,240.6,144.4,240.1,143z"/>
	<path class="st2" d="M268.9,137.9c0,1.6-1,3.1-2.6,3.6l-15.5,5.4c-2,0.7-4.2-0.4-4.8-2.3c0,0,0,0,0,0l-5.4-15.5
		c-0.7-2,0.4-4.2,2.3-4.8c0,0,0,0,0,0l15.5-5.4c2-0.7,4.2,0.4,4.8,2.3l5.4,15.5C268.8,137,268.9,137.5,268.9,137.9z M242.6,127.8
		c0,0.2,0,0.3,0.1,0.5l5.4,15.5c0.3,0.8,1.1,1.2,1.9,0.9c0,0,0,0,0,0l15.5-5.4c0.8-0.3,1.2-1.1,0.9-1.9l-5.4-15.5
		c-0.3-0.8-1.1-1.2-1.9-0.9l-15.5,5.4C243,126.6,242.6,127.1,242.6,127.8z"/>
	<path class="st5" d="M196.9,365l-20.9-2.8c-1.5-0.2-2.8,0.8-3,2.3c-0.1,0.5,0,0.9,0.2,1.4l8,19.5c0.6,1.4,2.1,2,3.5,1.4
		c0.4-0.2,0.8-0.5,1.1-0.8l12.9-16.7c0.9-1.2,0.7-2.8-0.5-3.7C197.8,365.3,197.4,365.1,196.9,365z"/>
	<path class="st6" d="M195.4,366.8c0,1-0.3,1.9-0.9,2.7l-12.9,16.7c-1.5,1.9-4.2,2.3-6.1,0.8c-0.6-0.5-1.1-1.1-1.4-1.8l-8-19.5
		c-0.9-2.2,0.1-4.8,2.4-5.7c0.7-0.3,1.5-0.4,2.2-0.3l20.9,2.8c1.6,0.2,2.9,1.2,3.5,2.7C195.3,365.7,195.4,366.3,195.4,366.8z
		 M169.2,364c0,0.1,0,0.2,0.1,0.4l8,19.5c0.2,0.5,0.7,0.7,1.2,0.5c0.2-0.1,0.3-0.2,0.4-0.3l12.9-16.7c0.3-0.4,0.2-1-0.2-1.3
		c-0.1-0.1-0.3-0.2-0.4-0.2v0l-20.9-2.8c-0.3,0-0.7,0.1-0.9,0.4C169.3,363.6,169.2,363.8,169.2,364z M191.4,364.2L191.4,364.2z"/>
	<path class="st10" d="M347.8,352.7l-21.9-2.9c-1.5-0.2-2.9,0.9-3.1,2.4c-0.1,0.5,0,1,0.2,1.4l8.4,20.4c0.6,1.4,2.2,2.1,3.6,1.5
		c0.5-0.2,0.8-0.5,1.1-0.9l13.5-17.5c0.9-1.2,0.7-3-0.5-3.9C348.7,352.9,348.2,352.7,347.8,352.7z"/>
	<path class="st11" d="M360.1,352.1c0,1-0.3,1.9-0.9,2.7l-13.5,17.5c-1.5,2-4.3,2.3-6.3,0.8c-0.6-0.5-1.1-1.1-1.4-1.9l-8.4-20.4
		c-0.9-2.3,0.1-4.9,2.4-5.9c0.7-0.3,1.5-0.4,2.3-0.3l21.9,2.9c1.6,0.2,3,1.3,3.6,2.7C359.9,350.9,360.1,351.5,360.1,352.1z
		 M332.6,349.2c0,0.1,0,0.3,0.1,0.4l8.4,20.4c0.2,0.5,0.8,0.8,1.4,0.6c0.2-0.1,0.3-0.2,0.4-0.3l13.5-17.5c0.4-0.5,0.3-1.1-0.2-1.5
		c-0.1-0.1-0.3-0.2-0.5-0.2l-21.9-2.9c-0.4-0.1-0.8,0.1-1,0.4C332.7,348.7,332.6,348.9,332.6,349.2L332.6,349.2z"/>
	<path class="st10" d="M641.9,115.1c0.2,0.5,0,1.2-0.6,1.4c0,0,0,0,0,0l-22.7,9.6c-0.5,0.2-1.2,0-1.4-0.6c-0.2-0.5,0-1.2,0.6-1.4
		l0,0l22.7-9.6C641,114.3,641.7,114.6,641.9,115.1C641.9,115.1,641.9,115.1,641.9,115.1z"/>
	<path class="st10" d="M644.9,105.7c0.2,0.5,0,1.2-0.6,1.4c0,0,0,0,0,0l-22.7,9.6c-0.5,0.2-1.2,0-1.4-0.6c-0.2-0.5,0-1.2,0.6-1.4
		l22.7-9.6C644,104.9,644.6,105.1,644.9,105.7C644.9,105.7,644.9,105.7,644.9,105.7z"/>
	<path class="st10" d="M635.6,100.3c0.2,0.5,0,1.2-0.6,1.4c0,0,0,0,0,0l-22.7,9.6c-0.5,0.2-1.2,0-1.4-0.6c-0.2-0.5,0-1.2,0.6-1.4
		l0,0l22.7-9.6C634.8,99.5,635.4,99.8,635.6,100.3C635.6,100.3,635.6,100.3,635.6,100.3z"/>
	<path class="st11" d="M640.4,117.8c0,0.5-0.3,0.9-0.7,1.1l-22.7,9.6c-0.6,0.2-1.3,0-1.5-0.6c-0.2-0.6,0-1.3,0.6-1.5l22.7-9.6
		c0.6-0.2,1.3,0,1.5,0.6c0,0,0,0,0,0C640.4,117.5,640.4,117.6,640.4,117.8z"/>
	<path class="st11" d="M643.4,108.4c0,0.5-0.3,0.9-0.7,1.1L620,119c-0.6,0.2-1.3,0-1.5-0.6c-0.2-0.6,0-1.3,0.6-1.5l0,0l22.6-9.6
		c0.6-0.2,1.3,0,1.5,0.6c0,0,0,0,0,0C643.4,108,643.4,108.2,643.4,108.4z"/>
	<path class="st11" d="M634.1,103c0,0.5-0.3,0.9-0.7,1.1l-22.7,9.6c-0.6,0.2-1.3,0-1.5-0.6c-0.2-0.6,0-1.3,0.6-1.5l22.7-9.6
		c0.6-0.2,1.3,0,1.5,0.6c0,0,0,0,0,0C634.1,102.7,634.1,102.8,634.1,103z"/>
	<path class="st5" d="M518,380.6c-0.1,0.3-0.3,0.5-0.6,0.6l-3.4,1.3c-1.3,0.5-2.8-0.2-3.3-1.5l-1.3-3.4c-0.1-0.2-0.3-0.3-0.6-0.3
		c0,0,0,0,0,0l-2.8,1.2c-1.3,0.6-2.8,0-3.4-1.3c0,0,0-0.1-0.1-0.1l-1.2-3.1c0-0.1-0.1-0.2-0.2-0.3c-0.1,0-0.2-0.1-0.3,0l-3.1,1.2
		c-1.3,0.5-2.8-0.1-3.4-1.4c0,0,0,0,0,0l-1.4-3.6c-0.2-0.5,0-1.2,0.6-1.4c0.5-0.2,1.2,0,1.4,0.6l1.4,3.6c0,0.1,0.1,0.2,0.2,0.2
		c0.1,0,0.2,0,0.3,0l3.1-1.2c1.3-0.5,2.8,0.1,3.4,1.4c0,0,0,0.1,0,0.1l1.2,3.1c0.1,0.2,0.3,0.3,0.6,0.3c0,0,0,0,0,0l2.8-1.2
		c1.3-0.6,2.8,0,3.4,1.3c0,0,0,0.1,0,0.1l1.3,3.4c0.1,0.2,0.3,0.3,0.6,0.3l3.4-1.3c0.6-0.2,1.2,0.1,1.4,0.6
		C518.1,380,518.1,380.3,518,380.6z"/>
	<path class="st6" d="M517.9,378c0,0.5-0.3,0.9-0.7,1.1l-3.4,1.3c-1.4,0.5-2.9-0.2-3.4-1.5l-1.3-3.4c-0.1-0.2-0.3-0.3-0.5-0.2
		c0,0,0,0,0,0l-2.8,1.2c-1.3,0.6-2.9,0-3.5-1.4c0,0,0-0.1-0.1-0.1l-1.2-3.1c-0.1-0.2-0.3-0.3-0.5-0.2c0,0,0,0,0,0l-3.1,1.3
		c-1.4,0.6-2.9-0.1-3.5-1.5c0,0,0,0,0,0l-1.4-3.6c-0.2-0.6,0-1.3,0.6-1.5c0.6-0.2,1.3,0,1.5,0.6c0,0,0,0,0,0l1.4,3.6
		c0,0.1,0.1,0.2,0.2,0.2c0.1,0,0.2,0,0.3,0l3.1-1.3c1.4-0.6,2.9,0.1,3.5,1.5c0,0,0,0.1,0,0.1l1.2,3.1c0.1,0.2,0.3,0.3,0.5,0.2
		c0,0,0,0,0,0l2.8-1.2c1.3-0.6,2.9,0,3.5,1.4c0,0,0,0.1,0,0.1l1.3,3.4c0.1,0.2,0.3,0.3,0.5,0.2l3.4-1.3c0.6-0.2,1.3,0.1,1.5,0.7
		c0,0,0,0,0,0C517.9,377.7,517.9,377.9,517.9,378z"/>
	<path class="st12" d="M573.1,241.3c0.3,0.3,0.4,0.8,0.3,1.2l-0.7,5.5c-0.3,2.1-2.2,3.6-4.3,3.4l-5.5-0.5c-0.4,0-0.7,0.2-0.8,0.6
		c0,0,0,0,0,0l-0.3,4.7c-0.1,2.2-2,3.8-4.2,3.6c-0.1,0-0.1,0-0.2,0l-5.1-0.6c-0.4,0-0.7,0.2-0.8,0.6c0,0,0,0,0,0l-0.4,5
		c-0.2,2.2-2.1,3.7-4.2,3.6c0,0,0,0,0,0l-5.8-0.5c-0.9-0.1-1.5-0.9-1.5-1.7c0.1-0.9,0.9-1.5,1.7-1.5l5.8,0.5c0.4,0,0.7-0.3,0.8-0.6
		l0.4-5c0.2-2.2,2.1-3.7,4.2-3.6c0,0,0.1,0,0.1,0l5.1,0.6c0.4,0,0.7-0.2,0.8-0.6c0,0,0,0,0,0l0.3-4.7c0.1-2.2,2-3.8,4.2-3.6
		c0,0,0.1,0,0.1,0l5.5,0.5c0.4,0,0.7-0.2,0.8-0.6l0.7-5.5c0.1-0.9,0.9-1.5,1.8-1.4C572.5,240.8,572.9,241,573.1,241.3z"/>
	<path class="st13" d="M570.4,241.5c0,0.1,0,0.1,0,0.2l-0.7,5.5c-0.3,2.2-2.2,3.7-4.4,3.5l-5.5-0.5c-0.3,0-0.6,0.2-0.6,0.5
		c0,0,0,0,0,0l-0.3,4.7c-0.1,2.2-2.1,3.9-4.3,3.8c-0.1,0-0.1,0-0.2,0l-5.1-0.6c-0.3,0-0.6,0.2-0.7,0.5c0,0,0,0,0,0l-0.4,5
		c-0.2,2.2-2.1,3.9-4.4,3.7c0,0,0,0,0,0l-5.8-0.5c-0.9-0.1-1.6-0.9-1.6-1.9s0.9-1.6,1.9-1.6l0,0l5.8,0.5c0.2,0,0.3,0,0.4-0.1
		c0.1-0.1,0.2-0.2,0.2-0.4l0.4-5c0.2-2.2,2.1-3.9,4.4-3.7c0,0,0.1,0,0.1,0l5.1,0.6c0.3,0,0.6-0.2,0.7-0.5c0,0,0,0,0,0l0.3-4.7
		c0.1-2.2,2.1-3.9,4.3-3.8c0,0,0.1,0,0.1,0l5.5,0.5c0.3,0,0.6-0.2,0.6-0.5l0.7-5.5c0.1-0.9,1-1.6,1.9-1.5
		C569.7,239.9,570.4,240.7,570.4,241.5z"/>
	<path class="st1" d="M218.6,488.4c0.1,0.3,0.1,0.6,0,0.8l-1.3,3.4c-0.5,1.3-1.9,2-3.3,1.5l-3.4-1.2c-0.2-0.1-0.5,0-0.6,0.3
		c0,0,0,0,0,0l-0.9,3c-0.4,1.4-1.9,2.1-3.2,1.7c0,0-0.1,0-0.1,0l-3.1-1.2c-0.1,0-0.2,0-0.3,0c-0.1,0.1-0.2,0.1-0.2,0.3l-1.1,3.1
		c-0.5,1.4-1.9,2.1-3.3,1.6c0,0,0,0,0,0l-3.6-1.2c-0.6-0.2-0.9-0.8-0.7-1.4c0.2-0.6,0.8-0.9,1.4-0.7l0,0l3.6,1.2c0.1,0,0.2,0,0.3,0
		c0.1-0.1,0.2-0.1,0.2-0.3l1.1-3.1c0.5-1.4,1.9-2.1,3.3-1.6c0,0,0.1,0,0.1,0l3.1,1.2c0.2,0.1,0.5,0,0.6-0.3c0,0,0,0,0,0l0.9-3
		c0.4-1.4,1.9-2.1,3.2-1.7c0,0,0.1,0,0.1,0l3.4,1.2c0.2,0.1,0.5,0,0.6-0.3l1.3-3.4c0.2-0.6,0.8-0.8,1.4-0.6
		C218.3,487.9,218.5,488.1,218.6,488.4z"/>
	<path class="st2" d="M218.2,487.4c0,0.1,0,0.3-0.1,0.4l-1.3,3.4c-0.5,1.3-2,2-3.4,1.5l-3.4-1.3c-0.2-0.1-0.4,0-0.5,0.2c0,0,0,0,0,0
		l-1,2.9c-0.5,1.4-2,2.1-3.4,1.7c0,0-0.1,0-0.1-0.1l-3.1-1.2c-0.2-0.1-0.4,0-0.5,0.2c0,0,0,0,0,0l-1.1,3.1c-0.5,1.4-2,2.1-3.4,1.6
		c0,0,0,0,0,0l-3.6-1.3c-0.6-0.2-0.9-0.9-0.7-1.5c0.2-0.6,0.9-0.9,1.5-0.7c0,0,0,0,0,0l3.6,1.3c0.1,0,0.2,0,0.3,0
		c0.1,0,0.2-0.1,0.2-0.2l1.1-3.1c0.5-1.4,2-2.1,3.4-1.6c0,0,0.1,0,0.1,0l3.1,1.2c0.2,0.1,0.4,0,0.5-0.2c0,0,0,0,0,0l1-2.9
		c0.5-1.4,2-2.1,3.4-1.7c0,0,0.1,0,0.1,0l3.4,1.3c0.2,0.1,0.4,0,0.5-0.2l1.3-3.4c0.2-0.6,0.9-0.9,1.5-0.6
		C217.9,486.5,218.2,486.9,218.2,487.4z"/>
	<path class="st8" d="M660.6,314.5l8.8-23c0.8-2.1,3.1-3.1,5.1-2.3l23,8.8c2.1,0.8,3.1,3.1,2.3,5.1l-8.8,23
		c-0.8,2.1-3.1,3.1-5.1,2.3l-23-8.8C660.9,318.8,659.8,316.5,660.6,314.5z"/>
	<path class="st9" d="M708.5,309.7c0,0.7-0.1,1.4-0.4,2l-8.8,23c-1.1,2.9-4.4,4.4-7.4,3.3l-23-8.8c-2.9-1.1-4.4-4.4-3.3-7.4
		c0,0,0,0,0,0l8.8-23c1.1-2.9,4.4-4.4,7.4-3.3l0,0l23,8.8C707,305.2,708.5,307.3,708.5,309.7z M704.9,310.5c0.4-1.2-0.1-2.5-1.3-2.9
		l-23-8.8c-1.2-0.4-2.5,0.1-2.9,1.3l-8.8,23c-0.4,1.2,0.1,2.5,1.3,2.9c0,0,0,0,0,0l23,8.8c1.2,0.4,2.5-0.1,2.9-1.3L704.9,310.5z"/>
	
		<ellipse transform="matrix(0.8822 -0.4708 0.4708 0.8822 -79.9488 642.5783)" class="st1" cx="1244.5" cy="481.1" rx="11.3" ry="11.3"/>
	<path class="st2" d="M1256.3,477.7c0,6.9-5.6,12.5-12.4,12.5c-6.9,0-12.5-5.6-12.5-12.4c0-4.6,2.5-8.8,6.6-11l0,0
		c6.1-3.2,13.6-0.9,16.8,5.1C1255.8,473.7,1256.3,475.7,1256.3,477.7z M1233.7,477.8c0,5.6,4.6,10.2,10.2,10.2
		c5.6,0,10.2-4.6,10.2-10.2c0-5.6-4.6-10.2-10.2-10.2c-4.5,0-8.4,2.9-9.8,7.2C1233.9,475.8,1233.7,476.8,1233.7,477.8L1233.7,477.8z
		"/>
	<path class="st1" d="M1058.2,192.7l7.8-23.3c0.7-2.1,2.9-3.2,5-2.5l23.3,7.8c2.1,0.7,3.2,2.9,2.5,5l-7.8,23.3
		c-0.7,2.1-2.9,3.2-5,2.5l-23.3-7.8C1058.6,197.1,1057.5,194.8,1058.2,192.7z"/>
	<path class="st2" d="M1103,185.6c0,0.6-0.1,1.2-0.3,1.8l-7.8,23.3c-1,3-4.2,4.6-7.2,3.6c0,0,0,0,0,0l-23.3-7.8
		c-3-1-4.6-4.2-3.6-7.2l7.8-23.3c1-3,4.2-4.6,7.2-3.6c0,0,0,0,0,0l23.3,7.8C1101.5,181,1103,183.2,1103,185.6z M1064,201.1
		c0,1,0.6,1.8,1.5,2.1l23.3,7.8c1.2,0.4,2.5-0.2,2.9-1.4l7.8-23.3c0.4-1.2-0.2-2.5-1.4-2.9l-23.3-7.8c-1.2-0.4-2.5,0.2-2.9,1.4
		l-7.8,23.3C1064.1,200.6,1064,200.9,1064,201.1L1064,201.1z"/>
	<path class="st3" d="M701.7,489.9l-27.6-13.7c-1.9-1-4.2-0.2-5.2,1.7c-0.3,0.6-0.4,1.3-0.4,2l1.9,30.7c0.1,2.1,2,3.8,4.1,3.6
		c0.7,0,1.3-0.3,1.9-0.6l25.7-17c1.8-1.2,2.3-3.6,1.1-5.4C702.9,490.7,702.3,490.2,701.7,489.9z"/>
	<path class="st4" d="M714,489.2l-27.6-13.7c-1.9-1-4.2-0.2-5.2,1.7c-0.3,0.6-0.4,1.3-0.4,2l1.9,30.7c0.1,2.1,2,3.8,4.1,3.6
		c0.7,0,1.3-0.3,1.9-0.6l25.7-17c1.8-1.2,2.3-3.6,1.1-5.4C715.2,490,714.6,489.5,714,489.2z"/>
	<circle class="st5" cx="785.4" cy="-4.1" r="21.6"/>
	<path class="st6" d="M812.9-8.4c0,3.9-1,7.7-2.8,11.1c-6.2,11.3-20.3,15.4-31.6,9.3c-11.3-6.2-15.4-20.3-9.3-31.6
		c6.2-11.3,20.3-15.4,31.6-9.3l0,0C808.3-24.7,812.9-16.9,812.9-8.4z M769.8-8.4c0,1.9,0.3,3.8,0.8,5.6c1.5,5.1,4.9,9.3,9.5,11.8
		c9.6,5.2,21.7,1.7,26.9-7.9c2.5-4.6,3.1-10.1,1.6-15.1c-1.5-5.1-4.9-9.3-9.5-11.8c-9.6-5.2-21.7-1.7-26.9,7.9
		C770.6-15,769.8-11.7,769.8-8.4L769.8-8.4z"/>
	<circle class="st3" cx="741.6" cy="189.8" r="11.3"/>
	<path class="st7" d="M755.1,186.6c0,6.9-5.6,12.4-12.4,12.4c-6.9,0-12.4-5.6-12.4-12.4c0-6.9,5.6-12.4,12.4-12.4c0,0,0,0,0,0
		C749.5,174.2,755.1,179.7,755.1,186.6z M732.5,186.6c0,5.6,4.5,10.2,10.2,10.2c5.6,0,10.2-4.5,10.2-10.2c0-5.6-4.5-10.2-10.2-10.2
		C737,176.5,732.5,181,732.5,186.6z"/>
	<circle class="st3" cx="1088.8" cy="506.7" r="11.3"/>
	<path class="st7" d="M1102.3,503.5c0,6.9-5.6,12.4-12.4,12.4c-6.9,0-12.4-5.6-12.4-12.4c0-6.9,5.6-12.4,12.4-12.4
		C1096.7,491.1,1102.3,496.7,1102.3,503.5z M1079.7,503.5c0,5.6,4.5,10.2,10.2,10.2s10.2-4.5,10.2-10.2c0-5.6-4.5-10.2-10.2-10.2
		l0,0C1084.3,493.4,1079.7,497.9,1079.7,503.5z"/>
	<circle class="st8" cx="1174.1" cy="43.9" r="17.4"/>
	<path class="st9" d="M1194.5,39.2c0,10.5-8.5,19.1-19.1,19.1c-10.5,0-19.1-8.5-19.1-19.1s8.5-19.1,19.1-19.1l0,0
		C1185.9,20.2,1194.5,28.7,1194.5,39.2z M1159.8,39.2c0,8.6,7,15.6,15.6,15.6c8.6,0,15.6-7,15.6-15.6c0-8.6-7-15.6-15.6-15.6
		C1166.8,23.6,1159.8,30.6,1159.8,39.2L1159.8,39.2z"/>
	<path class="st1" d="M905.4,143l-5.4-15.5c-0.5-1.4,0.2-2.9,1.6-3.4l15.5-5.4c1.4-0.5,2.9,0.2,3.4,1.6l5.4,15.5
		c0.5,1.4-0.2,2.9-1.6,3.4l-15.5,5.4C907.4,145.1,905.8,144.4,905.4,143z"/>
	<path class="st2" d="M934.1,137.9c0,1.6-1,3.1-2.6,3.6l-15.5,5.4c-2,0.7-4.2-0.4-4.8-2.3c0,0,0,0,0,0l-5.4-15.5
		c-0.7-2,0.4-4.2,2.3-4.8c0,0,0,0,0,0l15.5-5.4c2-0.7,4.2,0.4,4.8,2.3l5.4,15.5C934,137,934.1,137.5,934.1,137.9z M907.8,127.8
		c0,0.2,0,0.3,0.1,0.5l5.4,15.5c0.3,0.8,1.1,1.2,1.9,0.9c0,0,0,0,0,0l15.5-5.4c0.8-0.3,1.2-1.1,0.9-1.9l-5.4-15.5
		c-0.3-0.8-1.1-1.2-1.9-0.9l-15.5,5.4C908.2,126.6,907.8,127.1,907.8,127.8L907.8,127.8z"/>
	<path class="st5" d="M862.2,365l-20.9-2.8c-1.5-0.2-2.8,0.8-3,2.3c-0.1,0.5,0,0.9,0.2,1.4l8,19.5c0.6,1.4,2.1,2,3.5,1.4
		c0.4-0.2,0.8-0.5,1.1-0.8l12.9-16.7c0.9-1.2,0.7-2.8-0.5-3.7C863.1,365.3,862.6,365.1,862.2,365z"/>
	<path class="st6" d="M860.6,366.8c0,1-0.3,1.9-0.9,2.7l-12.9,16.7c-1.5,1.9-4.2,2.3-6.1,0.8c-0.6-0.5-1.1-1.1-1.4-1.8l-8-19.5
		c-0.9-2.2,0.1-4.8,2.4-5.7c0.7-0.3,1.5-0.4,2.2-0.3l20.9,2.8c1.6,0.2,2.9,1.2,3.5,2.7C860.5,365.7,860.6,366.3,860.6,366.8z
		 M834.4,364c0,0.1,0,0.2,0.1,0.4l8,19.5c0.2,0.5,0.7,0.7,1.2,0.5c0.2-0.1,0.3-0.2,0.4-0.3l12.9-16.7c0.3-0.4,0.2-1-0.2-1.3
		c-0.1-0.1-0.3-0.2-0.4-0.2v0l-20.9-2.8c-0.3,0-0.7,0.1-0.9,0.4C834.5,363.6,834.4,363.8,834.4,364L834.4,364z M856.6,364.2
		L856.6,364.2z"/>
	<path class="st10" d="M1013,352.7l-21.9-2.9c-1.5-0.2-2.9,0.9-3.1,2.4c-0.1,0.5,0,1,0.2,1.4l8.4,20.4c0.6,1.4,2.2,2.1,3.6,1.5
		c0.5-0.2,0.8-0.5,1.1-0.9l13.5-17.5c0.9-1.2,0.7-3-0.5-3.9C1013.9,352.9,1013.4,352.7,1013,352.7z"/>
	<path class="st11" d="M1025.3,352.1c0,1-0.3,1.9-0.9,2.7l-13.5,17.5c-1.5,2-4.3,2.3-6.3,0.8c-0.6-0.5-1.1-1.1-1.4-1.9l-8.4-20.4
		c-0.9-2.3,0.1-4.9,2.4-5.9c0.7-0.3,1.5-0.4,2.3-0.3l21.9,2.9c1.6,0.2,3,1.3,3.6,2.7C1025.2,350.9,1025.3,351.5,1025.3,352.1z
		 M997.8,349.2c0,0.1,0,0.3,0.1,0.4l8.4,20.4c0.2,0.5,0.8,0.8,1.4,0.6c0.2-0.1,0.3-0.2,0.4-0.3l13.5-17.5c0.4-0.5,0.3-1.1-0.2-1.5
		c-0.1-0.1-0.3-0.2-0.5-0.2l-21.9-2.9c-0.4-0.1-0.8,0.1-1,0.4C997.9,348.7,997.8,348.9,997.8,349.2L997.8,349.2z"/>
	<path class="st10" d="M1307.1,115.1c0.2,0.5,0,1.2-0.6,1.4c0,0,0,0,0,0l-22.7,9.6c-0.5,0.2-1.2,0-1.4-0.6c-0.2-0.5,0-1.2,0.6-1.4
		l0,0l22.7-9.6C1306.2,114.3,1306.9,114.6,1307.1,115.1C1307.1,115.1,1307.1,115.1,1307.1,115.1z"/>
	<path class="st10" d="M1310.1,105.7c0.2,0.5,0,1.2-0.6,1.4c0,0,0,0,0,0l-22.7,9.6c-0.5,0.2-1.2,0-1.4-0.6c-0.2-0.5,0-1.2,0.6-1.4
		l22.7-9.6C1309.2,104.9,1309.8,105.1,1310.1,105.7C1310.1,105.7,1310.1,105.7,1310.1,105.7z"/>
	<path class="st10" d="M1300.8,100.3c0.2,0.5,0,1.2-0.6,1.4c0,0,0,0,0,0l-22.7,9.6c-0.5,0.2-1.2,0-1.4-0.6c-0.2-0.5,0-1.2,0.6-1.4
		l0,0l22.7-9.6C1300,99.5,1300.6,99.8,1300.8,100.3C1300.8,100.3,1300.8,100.3,1300.8,100.3z"/>
	<path class="st11" d="M1305.6,117.8c0,0.5-0.3,0.9-0.7,1.1l-22.7,9.6c-0.6,0.2-1.3,0-1.5-0.6c-0.2-0.6,0-1.3,0.6-1.5l0,0l22.7-9.6
		c0.6-0.2,1.3,0,1.5,0.6c0,0,0,0,0,0C1305.6,117.5,1305.6,117.6,1305.6,117.8z"/>
	<path class="st11" d="M1308.6,108.4c0,0.5-0.3,0.9-0.7,1.1l-22.6,9.6c-0.6,0.2-1.3,0-1.5-0.6c-0.2-0.6,0-1.3,0.6-1.5l0,0l22.6-9.6
		c0.6-0.2,1.3,0,1.5,0.6c0,0,0,0,0,0C1308.6,108,1308.6,108.2,1308.6,108.4z"/>
	<path class="st11" d="M1299.3,103c0,0.5-0.3,0.9-0.7,1.1l-22.7,9.6c-0.6,0.2-1.3,0-1.5-0.6c-0.2-0.6,0-1.3,0.6-1.5l22.7-9.6
		c0.6-0.2,1.3,0,1.5,0.6c0,0,0,0,0,0C1299.3,102.7,1299.3,102.8,1299.3,103z"/>
	<path class="st5" d="M1183.2,380.6c-0.1,0.3-0.3,0.5-0.6,0.6l-3.4,1.3c-1.3,0.5-2.8-0.2-3.3-1.5l-1.3-3.4c-0.1-0.2-0.3-0.3-0.6-0.3
		c0,0,0,0,0,0l-2.8,1.2c-1.3,0.6-2.8,0-3.4-1.3c0,0,0-0.1-0.1-0.1l-1.2-3.1c0-0.1-0.1-0.2-0.2-0.3c-0.1,0-0.2-0.1-0.3,0l-3.1,1.2
		c-1.3,0.5-2.8-0.1-3.4-1.4c0,0,0,0,0,0l-1.4-3.6c-0.2-0.5,0-1.2,0.6-1.4c0.5-0.2,1.2,0,1.4,0.6l0,0l1.4,3.6c0,0.1,0.1,0.2,0.2,0.2
		c0.1,0,0.2,0,0.3,0l3.1-1.2c1.3-0.5,2.8,0.1,3.4,1.4c0,0,0,0.1,0,0.1l1.2,3.1c0.1,0.2,0.3,0.3,0.6,0.3c0,0,0,0,0,0l2.8-1.2
		c1.3-0.6,2.8,0,3.4,1.3c0,0,0,0.1,0,0.1l1.3,3.4c0.1,0.2,0.3,0.3,0.6,0.3l3.4-1.3c0.6-0.2,1.2,0.1,1.4,0.6
		C1183.3,380,1183.3,380.3,1183.2,380.6z"/>
	<path class="st6" d="M1183.1,378c0,0.5-0.3,0.9-0.7,1.1l-3.4,1.3c-1.4,0.5-2.9-0.2-3.4-1.5l-1.3-3.4c-0.1-0.2-0.3-0.3-0.5-0.2
		c0,0,0,0,0,0l-2.8,1.2c-1.3,0.6-2.9,0-3.5-1.4c0,0,0-0.1-0.1-0.1l-1.2-3.1c-0.1-0.2-0.3-0.3-0.5-0.2c0,0,0,0,0,0l-3.1,1.3
		c-1.4,0.6-2.9-0.1-3.5-1.5c0,0,0,0,0,0l-1.4-3.6c-0.2-0.6,0-1.3,0.6-1.5c0.6-0.2,1.3,0,1.5,0.6l1.4,3.6c0,0.1,0.1,0.2,0.2,0.2
		c0.1,0,0.2,0,0.3,0l3.1-1.3c1.4-0.6,2.9,0.1,3.5,1.5c0,0,0,0.1,0,0.1l1.2,3.1c0.1,0.2,0.3,0.3,0.5,0.2c0,0,0,0,0,0l2.8-1.2
		c1.3-0.6,2.9,0,3.5,1.4c0,0,0,0.1,0,0.1l1.3,3.4c0.1,0.2,0.3,0.3,0.5,0.2l3.4-1.3c0.6-0.2,1.3,0.1,1.5,0.7c0,0,0,0,0,0
		C1183.1,377.7,1183.1,377.9,1183.1,378z"/>
	<path class="st12" d="M1238.3,241.3c0.3,0.3,0.4,0.8,0.3,1.2l-0.7,5.5c-0.3,2.1-2.2,3.6-4.3,3.4l-5.5-0.5c-0.4,0-0.7,0.2-0.8,0.6
		c0,0,0,0,0,0l-0.3,4.7c-0.1,2.2-2,3.8-4.2,3.6c-0.1,0-0.1,0-0.2,0l-5.1-0.6c-0.4,0-0.7,0.2-0.8,0.6c0,0,0,0,0,0l-0.4,5
		c-0.2,2.2-2.1,3.7-4.2,3.6c0,0,0,0,0,0l-5.8-0.5c-0.9-0.1-1.5-0.9-1.5-1.7c0.1-0.9,0.9-1.5,1.7-1.5l5.8,0.5c0.4,0,0.7-0.3,0.8-0.6
		l0.4-5c0.2-2.2,2.1-3.7,4.2-3.6c0,0,0.1,0,0.1,0l5.1,0.6c0.4,0,0.7-0.2,0.8-0.6c0,0,0,0,0,0l0.3-4.7c0.1-2.2,2-3.8,4.2-3.6
		c0,0,0.1,0,0.1,0l5.5,0.5c0.4,0,0.7-0.2,0.8-0.6l0.7-5.5c0.1-0.9,0.9-1.5,1.8-1.4C1237.7,240.8,1238.1,241,1238.3,241.3z"/>
	<path class="st13" d="M1235.6,241.5c0,0.1,0,0.1,0,0.2l-0.7,5.5c-0.3,2.2-2.2,3.7-4.4,3.5l-5.5-0.5c-0.3,0-0.6,0.2-0.6,0.5
		c0,0,0,0,0,0l-0.3,4.7c-0.1,2.2-2.1,3.9-4.3,3.8c-0.1,0-0.1,0-0.2,0l-5.1-0.6c-0.3,0-0.6,0.2-0.7,0.5c0,0,0,0,0,0l-0.4,5
		c-0.2,2.2-2.1,3.9-4.4,3.7c0,0,0,0,0,0l-5.8-0.5c-0.9-0.1-1.6-0.9-1.6-1.9c0.1-0.9,0.9-1.6,1.9-1.6l0,0l5.8,0.5
		c0.2,0,0.3,0,0.4-0.1c0.1-0.1,0.2-0.2,0.2-0.4l0.4-5c0.2-2.2,2.1-3.9,4.4-3.7c0,0,0.1,0,0.1,0l5.1,0.6c0.3,0,0.6-0.2,0.7-0.5
		c0,0,0,0,0,0l0.3-4.7c0.1-2.2,2.1-3.9,4.3-3.8c0,0,0.1,0,0.1,0l5.5,0.5c0.3,0,0.6-0.2,0.6-0.5l0.7-5.5c0.1-0.9,1-1.6,1.9-1.5
		C1235,239.9,1235.6,240.7,1235.6,241.5z"/>
	<path class="st1" d="M883.8,488.4c0.1,0.3,0.1,0.6,0,0.8l-1.3,3.4c-0.5,1.3-1.9,2-3.3,1.5l-3.4-1.2c-0.2-0.1-0.5,0-0.6,0.3
		c0,0,0,0,0,0l-0.9,3c-0.4,1.4-1.9,2.1-3.2,1.7c0,0-0.1,0-0.1,0l-3.1-1.2c-0.1,0-0.2,0-0.3,0c-0.1,0.1-0.2,0.1-0.2,0.3l-1.1,3.1
		c-0.5,1.4-1.9,2.1-3.3,1.6c0,0,0,0,0,0l-3.6-1.2c-0.6-0.2-0.9-0.8-0.7-1.4c0.2-0.6,0.8-0.9,1.4-0.7l0,0l3.6,1.2c0.1,0,0.2,0,0.3,0
		c0.1-0.1,0.2-0.1,0.2-0.3l1.1-3.1c0.5-1.4,1.9-2.1,3.3-1.6c0,0,0.1,0,0.1,0l3.1,1.2c0.2,0.1,0.5,0,0.6-0.3c0,0,0,0,0,0l0.9-3
		c0.4-1.4,1.9-2.1,3.2-1.7c0,0,0.1,0,0.1,0l3.4,1.2c0.2,0.1,0.5,0,0.6-0.3l1.3-3.4c0.2-0.6,0.8-0.8,1.4-0.6
		C883.5,487.9,883.7,488.1,883.8,488.4z"/>
	<path class="st2" d="M883.4,487.4c0,0.1,0,0.3-0.1,0.4l-1.3,3.4c-0.5,1.3-2,2-3.4,1.5l-3.4-1.3c-0.2-0.1-0.4,0-0.5,0.2c0,0,0,0,0,0
		l-1,2.9c-0.5,1.4-2,2.1-3.4,1.7c0,0-0.1,0-0.1-0.1l-3.1-1.2c-0.2-0.1-0.4,0-0.5,0.2c0,0,0,0,0,0l-1.1,3.1c-0.5,1.4-2,2.1-3.4,1.6
		c0,0,0,0,0,0l-3.6-1.3c-0.6-0.2-0.9-0.9-0.7-1.5c0.2-0.6,0.9-0.9,1.5-0.7l3.6,1.3c0.1,0,0.2,0,0.3,0c0.1,0,0.2-0.1,0.2-0.2l1.1-3.1
		c0.5-1.4,2-2.1,3.4-1.6c0,0,0.1,0,0.1,0l3.1,1.2c0.2,0.1,0.4,0,0.5-0.2c0,0,0,0,0,0l1-2.9c0.5-1.4,2-2.1,3.4-1.7c0,0,0.1,0,0.1,0
		l3.4,1.3c0.2,0.1,0.4,0,0.5-0.2l1.3-3.4c0.2-0.6,0.9-0.9,1.5-0.6C883.1,486.5,883.4,486.9,883.4,487.4z"/>
	<path class="st8" d="M1325.8,314.5l8.8-23c0.8-2.1,3.1-3.1,5.1-2.3l23,8.8c2.1,0.8,3.1,3.1,2.3,5.1l-8.8,23
		c-0.8,2.1-3.1,3.1-5.1,2.3l-23-8.8C1326.1,318.8,1325,316.5,1325.8,314.5z"/>
	<path class="st9" d="M1373.7,309.7c0,0.7-0.1,1.4-0.4,2l-8.8,23c-1.1,2.9-4.4,4.4-7.4,3.3l-23-8.8c-2.9-1.1-4.4-4.4-3.3-7.4
		c0,0,0,0,0,0l8.8-23c1.1-2.9,4.4-4.4,7.4-3.3c0,0,0,0,0,0l23,8.8C1372.3,305.2,1373.7,307.3,1373.7,309.7z M1370.1,310.5
		c0.4-1.2-0.1-2.5-1.3-2.9l-23-8.8c-1.2-0.4-2.5,0.1-2.9,1.3l-8.8,23c-0.4,1.2,0.1,2.5,1.3,2.9c0,0,0,0,0,0l23,8.8
		c1.2,0.4,2.5-0.1,2.9-1.3L1370.1,310.5z"/>
	<path class="st1" d="M1781,212.7l7.8-23.3c0.7-2.1,2.9-3.2,5-2.5l23.3,7.8c2.1,0.7,3.2,2.9,2.5,5l-7.8,23.3c-0.7,2.1-2.9,3.2-5,2.5
		l-23.3-7.8C1781.4,217.1,1780.3,214.8,1781,212.7z"/>
	<path class="st2" d="M1825.8,205.6c0,0.6-0.1,1.2-0.3,1.8l-7.8,23.3c-1,3-4.2,4.6-7.2,3.6c0,0,0,0,0,0l-23.3-7.8
		c-3-1-4.6-4.2-3.6-7.2l7.8-23.3c1-3,4.2-4.6,7.2-3.6c0,0,0,0,0,0l23.3,7.8C1824.3,201,1825.8,203.2,1825.8,205.6z M1786.8,221.1
		c0,1,0.6,1.8,1.5,2.1l23.3,7.8c1.2,0.4,2.5-0.2,2.9-1.4l7.8-23.3c0.4-1.2-0.2-2.5-1.4-2.9l-23.3-7.8c-1.2-0.4-2.5,0.2-2.9,1.4
		l-7.8,23.3C1786.9,220.6,1786.8,220.9,1786.8,221.1z"/>
	<path class="st3" d="M1424.5,509.9l-27.6-13.7c-1.9-1-4.2-0.2-5.2,1.7c-0.3,0.6-0.4,1.3-0.4,2l1.9,30.7c0.1,2.1,2,3.8,4.1,3.6
		c0.7,0,1.3-0.3,1.9-0.6l25.7-17c1.8-1.2,2.3-3.6,1.1-5.4C1425.7,510.7,1425.1,510.2,1424.5,509.9z"/>
	<path class="st4" d="M1436.8,509.2l-27.6-13.7c-1.9-1-4.2-0.2-5.2,1.7c-0.3,0.6-0.4,1.3-0.4,2l1.9,30.7c0.1,2.1,2,3.8,4.1,3.6
		c0.7,0,1.3-0.3,1.9-0.6l25.7-17c1.8-1.2,2.3-3.6,1.1-5.4C1438,510,1437.4,509.5,1436.8,509.2z"/>
	
		<ellipse transform="matrix(0.4794 -0.8776 0.8776 0.4794 771.2701 1331.8887)" class="st5" cx="1508.2" cy="15.9" rx="21.6" ry="21.6"/>
	<path class="st6" d="M1535.7,11.6c0,12.9-10.5,23.3-23.3,23.2c-12.9,0-23.3-10.5-23.2-23.3c0-12.9,10.5-23.3,23.3-23.2
		c3.9,0,7.7,1,11.1,2.8l0,0C1531.1-4.7,1535.7,3.1,1535.7,11.6z M1492.6,11.6c0,1.9,0.3,3.8,0.8,5.6c1.5,5.1,4.9,9.3,9.5,11.8
		c9.6,5.2,21.6,1.7,26.9-7.9c5.2-9.6,1.7-21.6-7.9-26.9s-21.6-1.7-26.9,7.9C1493.4,5,1492.6,8.3,1492.6,11.6L1492.6,11.6z"/>
	<circle class="st3" cx="1464.4" cy="209.8" r="11.3"/>
	<path class="st7" d="M1477.9,206.6c0,6.9-5.6,12.4-12.4,12.4c-6.9,0-12.4-5.6-12.4-12.4c0-6.9,5.6-12.4,12.4-12.4h0
		C1472.3,194.2,1477.9,199.7,1477.9,206.6z M1455.3,206.6c0,5.6,4.5,10.2,10.2,10.2c5.6,0,10.2-4.5,10.2-10.2
		c0-5.6-4.5-10.2-10.2-10.2C1459.8,196.5,1455.3,201,1455.3,206.6z"/>
	<circle class="st3" cx="1811.6" cy="526.7" r="11.3"/>
	<path class="st7" d="M1825.1,523.5c0,6.9-5.6,12.4-12.4,12.4c-6.9,0-12.4-5.6-12.4-12.4c0-6.9,5.6-12.4,12.4-12.4
		C1819.5,511.1,1825.1,516.7,1825.1,523.5z M1802.5,523.5c0,5.6,4.5,10.2,10.2,10.2s10.2-4.5,10.2-10.2c0-5.6-4.5-10.2-10.2-10.2
		l0,0C1807.1,513.4,1802.5,517.9,1802.5,523.5z"/>
	<circle class="st8" cx="1896.9" cy="63.9" r="17.4"/>
	<path class="st9" d="M1917.3,59.2c0,10.5-8.5,19.1-19.1,19.1c-10.5,0-19.1-8.5-19.1-19.1c0-10.5,8.5-19.1,19.1-19.1
		C1908.7,40.2,1917.3,48.7,1917.3,59.2z M1882.6,59.2c0,8.6,7,15.6,15.6,15.6c8.6,0,15.6-7,15.6-15.6s-7-15.6-15.6-15.6c0,0,0,0,0,0
		C1889.6,43.6,1882.6,50.6,1882.6,59.2z"/>
	<path class="st1" d="M1628.2,163l-5.4-15.5c-0.5-1.4,0.2-2.9,1.6-3.4l15.5-5.4c1.4-0.5,2.9,0.2,3.4,1.6l5.4,15.5
		c0.5,1.4-0.2,2.9-1.6,3.4l-15.5,5.4C1630.2,165.1,1628.6,164.4,1628.2,163z"/>
	<path class="st2" d="M1656.9,157.9c0,1.6-1,3.1-2.6,3.6l-15.5,5.4c-2,0.7-4.2-0.4-4.8-2.3c0,0,0,0,0,0l-5.4-15.5
		c-0.7-2,0.4-4.2,2.3-4.8c0,0,0,0,0,0l15.5-5.4c2-0.7,4.2,0.4,4.8,2.3l5.4,15.5C1656.8,157,1656.9,157.5,1656.9,157.9z
		 M1630.6,147.8c0,0.2,0,0.3,0.1,0.5l5.4,15.5c0.3,0.8,1.1,1.2,1.9,0.9c0,0,0,0,0,0l15.5-5.4c0.8-0.3,1.2-1.1,0.9-1.9l-5.4-15.5
		c-0.3-0.8-1.1-1.2-1.9-0.9l-15.5,5.4C1631,146.6,1630.6,147.1,1630.6,147.8z"/>
	<path class="st5" d="M1584.9,385l-20.9-2.8c-1.5-0.2-2.8,0.8-3,2.3c-0.1,0.5,0,0.9,0.2,1.4l8,19.5c0.6,1.4,2.1,2,3.5,1.4
		c0.4-0.2,0.8-0.5,1.1-0.8l12.9-16.7c0.9-1.2,0.7-2.8-0.5-3.7C1585.8,385.3,1585.4,385.1,1584.9,385z"/>
	<path class="st6" d="M1583.4,386.8c0,1-0.3,1.9-0.9,2.7l-12.9,16.7c-1.5,1.9-4.2,2.3-6.1,0.8c-0.6-0.5-1.1-1.1-1.4-1.8l-8-19.5
		c-0.9-2.2,0.1-4.8,2.4-5.7c0.7-0.3,1.5-0.4,2.2-0.3l20.9,2.8c1.6,0.2,2.9,1.2,3.5,2.7C1583.3,385.7,1583.4,386.3,1583.4,386.8z
		 M1557.2,384c0,0.1,0,0.2,0.1,0.4l8,19.5c0.2,0.5,0.7,0.7,1.2,0.5c0.2-0.1,0.3-0.2,0.4-0.3l12.9-16.7c0.3-0.4,0.2-1-0.2-1.3
		c-0.1-0.1-0.3-0.2-0.4-0.2v0l-20.9-2.8c-0.3,0-0.7,0.1-0.9,0.4C1557.3,383.6,1557.2,383.8,1557.2,384z M1579.4,384.2L1579.4,384.2z
		"/>
	<path class="st10" d="M1735.8,372.7l-21.9-2.9c-1.5-0.2-2.9,0.9-3.1,2.4c-0.1,0.5,0,1,0.2,1.4l8.4,20.4c0.6,1.4,2.2,2.1,3.6,1.5
		c0.5-0.2,0.8-0.5,1.1-0.9l13.5-17.5c0.9-1.2,0.7-3-0.5-3.9C1736.7,372.9,1736.2,372.7,1735.8,372.7z"/>
	<path class="st11" d="M1748.1,372.1c0,1-0.3,1.9-0.9,2.7l-13.5,17.5c-1.5,2-4.3,2.3-6.3,0.8c-0.6-0.5-1.1-1.1-1.4-1.9l-8.4-20.4
		c-0.9-2.3,0.1-4.9,2.4-5.9c0.7-0.3,1.5-0.4,2.3-0.3l21.9,2.9c1.6,0.2,3,1.3,3.6,2.7C1747.9,370.9,1748.1,371.5,1748.1,372.1z
		 M1720.6,369.2c0,0.1,0,0.3,0.1,0.4l8.4,20.4c0.2,0.5,0.8,0.8,1.4,0.6c0.2-0.1,0.3-0.2,0.4-0.3l13.5-17.5c0.4-0.5,0.3-1.1-0.2-1.5
		c-0.1-0.1-0.3-0.2-0.5-0.2l-21.9-2.9c-0.4-0.1-0.8,0.1-1,0.4C1720.7,368.7,1720.6,368.9,1720.6,369.2L1720.6,369.2z"/>
	<path class="st10" d="M1691.3-17.8l-14.7,27.1c-1,1.9-0.3,4.2,1.6,5.3c0.6,0.3,1.3,0.5,2,0.5l30.8-0.8c2.1-0.1,3.8-1.8,3.8-4
		c0-0.7-0.2-1.3-0.6-1.9L1698-18c-1.1-1.8-3.5-2.4-5.3-1.3C1692.1-18.9,1691.6-18.4,1691.3-17.8z"/>
	<path class="st5" d="M1906,400.6c-0.1,0.3-0.3,0.5-0.6,0.6l-3.4,1.3c-1.3,0.5-2.8-0.2-3.3-1.5l-1.3-3.4c-0.1-0.2-0.3-0.3-0.6-0.3
		c0,0,0,0,0,0l-2.8,1.2c-1.3,0.6-2.8,0-3.4-1.3c0,0,0-0.1-0.1-0.1l-1.2-3.1c0-0.1-0.1-0.2-0.2-0.3c-0.1,0-0.2-0.1-0.3,0l-3.1,1.2
		c-1.3,0.5-2.8-0.1-3.4-1.4c0,0,0,0,0,0l-1.4-3.6c-0.2-0.5,0-1.2,0.6-1.4c0.5-0.2,1.2,0,1.4,0.6l0,0l1.4,3.6c0,0.1,0.1,0.2,0.2,0.2
		c0.1,0,0.2,0,0.3,0l3.1-1.2c1.3-0.5,2.8,0.1,3.4,1.4c0,0,0,0.1,0,0.1l1.2,3.1c0.1,0.2,0.3,0.3,0.6,0.3c0,0,0,0,0,0l2.8-1.2
		c1.3-0.6,2.8,0,3.4,1.3c0,0,0,0.1,0,0.1l1.3,3.4c0.1,0.2,0.3,0.3,0.6,0.3l3.4-1.3c0.6-0.2,1.2,0.1,1.4,0.6
		C1906.1,400,1906.1,400.3,1906,400.6z"/>
	<path class="st6" d="M1905.9,398c0,0.5-0.3,0.9-0.7,1.1l-3.4,1.3c-1.4,0.5-2.9-0.2-3.4-1.5l-1.3-3.4c-0.1-0.2-0.3-0.3-0.5-0.2
		c0,0,0,0,0,0l-2.8,1.2c-1.3,0.6-2.9,0-3.5-1.4c0,0,0-0.1-0.1-0.1l-1.2-3.1c-0.1-0.2-0.3-0.3-0.5-0.2c0,0,0,0,0,0l-3.1,1.3
		c-1.4,0.6-2.9-0.1-3.5-1.5c0,0,0,0,0,0l-1.4-3.6c-0.2-0.6,0-1.3,0.6-1.5c0.6-0.2,1.3,0,1.5,0.6l1.4,3.6c0,0.1,0.1,0.2,0.2,0.2
		c0.1,0,0.2,0,0.3,0l3.1-1.3c1.4-0.6,2.9,0.1,3.5,1.5c0,0,0,0.1,0,0.1l1.2,3.1c0.1,0.2,0.3,0.3,0.5,0.2c0,0,0,0,0,0l2.8-1.2
		c1.3-0.6,2.9,0,3.5,1.4c0,0,0,0.1,0,0.1l1.3,3.4c0.1,0.2,0.3,0.3,0.5,0.2l3.4-1.3c0.6-0.2,1.3,0.1,1.5,0.7c0,0,0,0,0,0
		C1905.9,397.7,1905.9,397.9,1905.9,398z"/>
	<path class="st1" d="M1606.6,508.4c0.1,0.3,0.1,0.6,0,0.8l-1.3,3.4c-0.5,1.3-1.9,2-3.3,1.5l-3.4-1.2c-0.2-0.1-0.5,0-0.6,0.3
		c0,0,0,0,0,0l-0.9,3c-0.4,1.4-1.9,2.1-3.2,1.7c0,0-0.1,0-0.1,0l-3.1-1.2c-0.1,0-0.2,0-0.3,0c-0.1,0.1-0.2,0.1-0.2,0.3l-1.1,3.1
		c-0.5,1.4-1.9,2.1-3.3,1.6c0,0,0,0,0,0l-3.6-1.2c-0.6-0.2-0.9-0.8-0.7-1.4c0.2-0.6,0.8-0.9,1.4-0.7l0,0l3.6,1.2c0.1,0,0.2,0,0.3,0
		c0.1-0.1,0.2-0.1,0.2-0.3l1.1-3.1c0.5-1.4,1.9-2.1,3.3-1.6c0,0,0.1,0,0.1,0l3.1,1.2c0.2,0.1,0.5,0,0.6-0.3c0,0,0,0,0,0l0.9-3
		c0.4-1.4,1.9-2.1,3.2-1.7c0,0,0.1,0,0.1,0l3.4,1.2c0.2,0.1,0.5,0,0.6-0.3l1.3-3.4c0.2-0.6,0.8-0.8,1.4-0.6
		C1606.3,507.9,1606.5,508.1,1606.6,508.4z"/>
	<path class="st2" d="M1606.2,507.4c0,0.1,0,0.3-0.1,0.4l-1.3,3.4c-0.5,1.3-2,2-3.4,1.5l-3.4-1.3c-0.2-0.1-0.4,0-0.5,0.2
		c0,0,0,0,0,0l-1,2.9c-0.5,1.4-2,2.1-3.4,1.7c0,0-0.1,0-0.1-0.1l-3.1-1.2c-0.2-0.1-0.4,0-0.5,0.2c0,0,0,0,0,0l-1.1,3.1
		c-0.5,1.4-2,2.1-3.4,1.6c0,0,0,0,0,0l-3.6-1.3c-0.6-0.2-0.9-0.9-0.7-1.5c0.2-0.6,0.9-0.9,1.5-0.7l3.6,1.3c0.1,0,0.2,0,0.3,0
		c0.1,0,0.2-0.1,0.2-0.2l1.1-3.1c0.5-1.4,2-2.1,3.4-1.6c0,0,0.1,0,0.1,0l3.1,1.2c0.2,0.1,0.4,0,0.5-0.2c0,0,0,0,0,0l1-2.9
		c0.5-1.4,2-2.1,3.4-1.7c0,0,0.1,0,0.1,0l3.4,1.3c0.2,0.1,0.4,0,0.5-0.2l1.3-3.4c0.2-0.6,0.9-0.9,1.5-0.6
		C1605.9,506.5,1606.2,506.9,1606.2,507.4z"/>
	<path class="st11" d="M1716.1-2c0,0.9-0.2,1.9-0.7,2.7c-0.9,1.8-2.8,2.9-4.8,2.9l-30.8,0.8c-2,0.1-3.9-1-4.9-2.7
		c-1.1-1.7-1.1-3.8-0.1-5.6l14.7-27.1l0,0c0.9-1.8,2.8-2.9,4.8-2.9c2-0.1,3.9,1,4.9,2.7L1715.3-5C1715.8-4.1,1716.1-3.1,1716.1-2z
		 M1677.5-1.3c0,0.4,0.1,0.8,0.3,1.1c0.4,0.7,1.1,1.1,1.9,1l30.8-0.8c0.8,0,1.5-0.4,1.8-1.1c0.4-0.7,0.4-1.5-0.1-2.2l-16.1-26.3
		c-0.4-0.7-1.1-1.1-1.9-1c-0.8,0-1.5,0.4-1.8,1.1l0,0l-14.7,27.1C1677.6-2,1677.5-1.6,1677.5-1.3L1677.5-1.3z"/>
</g>
</svg>
