<svg id="Capa_1" enable-background="new 0 0 512 512" height="512" viewBox="0 0 512 512" width="512" xmlns="http://www.w3.org/2000/svg"><g><g><path d="m319.563 164.033c0 8.968-7.27 16.238-16.238 16.238h-20.899l-24.688-10-28.163 10h-20.899c-8.968 0-16.238-7.27-16.238-16.238 0-8.968 7.27-16.238 16.238-16.238h94.649c8.968 0 16.238 7.27 16.238 16.238zm149.937-44.793h-437c-13.807 0-25 11.193-25 25v314.335c0 13.807 11.193 25 25 25h437c13.807 0 25-11.193 25-25v-314.335c0-13.807-11.193-25-25-25z" fill="#f9f6f9"/><path d="m479.5 119.24h-30c13.807 0 25 11.193 25 25v314.335c0 13.807-11.193 25-25 25h30c13.807 0 25-11.193 25-25v-314.335c0-13.807-11.193-25-25-25z" fill="#dedbec"/><path d="m247.738 449.297h-21.689l-72.378-10-72.378 10h-21.688c-5.523 0-10-4.477-10-10v-214.748c0-5.523 4.477-10 10-10h188.132c5.523 0 10 4.477 10 10v214.748c0 5.523-4.477 10-9.999 10z" fill="#95c7f8"/><path d="m226.049 449.297h-144.755v-53.847c0-13.807 11.193-25 25-25h94.755c13.807 0 25 11.193 25 25z" fill="#245e7c"/><path d="m153.671 400.451c-11.445 0-20.722-9.278-20.722-20.723v-57.193h41.445v57.193c0 11.445-9.278 20.723-20.723 20.723z" fill="#ffbd86"/><path d="m153.671 361.451c-23.249 0-42.096-18.847-42.096-42.096v-16.71c0-23.249 18.847-42.096 42.096-42.096 23.249 0 42.096 18.847 42.096 42.096v16.71c0 23.249-18.847 42.096-42.096 42.096z" fill="#fed2a4"/><path d="m262.425 28.425h-22.851c-5.523 0-10 4.477-10 10v141.846h42.851v-141.846c0-5.523-4.477-10-10-10z" fill="#ea7bc1"/><path d="m272.426 28.425h-17c5.523 0 10 4.477 10 10v141.846h17v-141.846c0-5.523-4.478-10-10-10z" fill="#ea5bb1"/></g><g><path d="m462.395 207.049h-162.641c-4.142 0-7.5 3.358-7.5 7.5s3.358 7.5 7.5 7.5h162.641c4.142 0 7.5-3.358 7.5-7.5s-3.358-7.5-7.5-7.5z"/><path d="m462.395 263.218h-162.641c-4.142 0-7.5 3.358-7.5 7.5s3.358 7.5 7.5 7.5h162.641c4.142 0 7.5-3.358 7.5-7.5s-3.358-7.5-7.5-7.5z"/><path d="m462.395 319.386h-162.641c-4.142 0-7.5 3.358-7.5 7.5s3.358 7.5 7.5 7.5h162.641c4.142 0 7.5-3.358 7.5-7.5s-3.358-7.5-7.5-7.5z"/><path d="m59.605 222.049h119.819c4.142 0 7.5-3.358 7.5-7.5s-3.358-7.5-7.5-7.5h-119.819c-9.649 0-17.5 7.851-17.5 17.5v214.749c0 9.649 7.851 17.5 17.5 17.5h188.132c9.649 0 17.5-7.851 17.5-17.5v-214.749c0-9.649-7.851-17.5-17.5-17.5h-35.627c-4.142 0-7.5 3.358-7.5 7.5s3.358 7.5 7.5 7.5h35.627c1.378 0 2.5 1.122 2.5 2.5v214.749c0 1.378-1.122 2.5-2.5 2.5h-14.189v-46.347c0-17.92-14.58-32.5-32.5-32.5h-19.155v-2.846c12.903-8.964 21.373-23.883 21.373-40.749v-16.71c0-27.348-22.249-49.596-49.596-49.596s-49.596 22.249-49.596 49.596v16.71c0 16.867 8.47 31.785 21.373 40.749v2.846h-19.155c-17.921 0-32.5 14.58-32.5 32.5v46.347h-14.187c-1.378 0-2.5-1.122-2.5-2.5v-214.749c0-1.379 1.122-2.5 2.5-2.5zm80.844 145.098c4.213 1.167 8.643 1.804 13.223 1.804 4.579 0 9.01-.637 13.223-1.804v12.581c0 7.291-5.932 13.223-13.223 13.223s-13.223-5.932-13.223-13.223zm-21.373-64.502c0-19.076 15.52-34.596 34.596-34.596s34.596 15.52 34.596 34.596v16.71c0 19.076-15.52 34.596-34.596 34.596s-34.596-15.52-34.596-34.596zm-30.282 92.806c0-9.649 7.85-17.5 17.5-17.5h19.155v1.777c0 15.562 12.661 28.223 28.223 28.223s28.223-12.661 28.223-28.223v-1.777h19.155c9.649 0 17.5 7.851 17.5 17.5v46.347h-129.756z"/><path d="m292.254 418.462v30.835c0 4.142 3.358 7.5 7.5 7.5s7.5-3.358 7.5-7.5v-30.835c0-4.142-3.358-7.5-7.5-7.5s-7.5 3.358-7.5 7.5z"/><path d="m346.468 418.462v30.835c0 4.142 3.358 7.5 7.5 7.5s7.5-3.358 7.5-7.5v-30.835c0-4.142-3.358-7.5-7.5-7.5s-7.5 3.358-7.5 7.5z"/><path d="m400.681 418.462v30.835c0 4.142 3.358 7.5 7.5 7.5s7.5-3.358 7.5-7.5v-30.835c0-4.142-3.358-7.5-7.5-7.5s-7.5 3.358-7.5 7.5z"/><path d="m462.395 410.962c-4.142 0-7.5 3.358-7.5 7.5v30.835c0 4.142 3.358 7.5 7.5 7.5s7.5-3.358 7.5-7.5v-30.835c0-4.142-3.358-7.5-7.5-7.5z"/><path d="m256 69.348c4.142 0 7.5-3.358 7.5-7.5 0-4.142-3.358-7.5-7.5-7.5s-7.5 3.358-7.5 7.5c0 4.142 3.358 7.5 7.5 7.5z"/><path d="m303.325 187.771c13.089 0 23.738-10.649 23.738-23.738s-10.649-23.738-23.738-23.738h-13.399v-13.555h94.413c4.142 0 7.5-3.358 7.5-7.5s-3.358-7.5-7.5-7.5h-94.413v-73.315c0-9.649-7.851-17.5-17.5-17.5h-32.851c-9.649 0-17.5 7.851-17.5 17.5v73.314h-189.575c-17.92 0-32.5 14.58-32.5 32.5v195.409c0 4.142 3.358 7.5 7.5 7.5s7.5-3.358 7.5-7.5v-195.408c0-9.649 7.851-17.5 17.5-17.5h189.575v13.555h-13.399c-13.089 0-23.738 10.649-23.738 23.738s10.649 23.738 23.738 23.738zm-103.387-23.738c0-4.818 3.92-8.738 8.738-8.738h13.399v17.477h-13.399c-4.819-.001-8.738-3.92-8.738-8.739zm103.387-8.738c4.818 0 8.738 3.92 8.738 8.738s-3.92 8.738-8.738 8.738h-13.399v-17.477h13.399zm-66.25-116.87c0-1.378 1.122-2.5 2.5-2.5h32.851c1.378 0 2.5 1.122 2.5 2.5v134.346h-37.851z"/><path d="m479.5 111.74h-62.476c-4.142 0-7.5 3.358-7.5 7.5s3.358 7.5 7.5 7.5h62.476c9.649 0 17.5 7.851 17.5 17.5v314.335c0 9.649-7.851 17.5-17.5 17.5h-447c-9.649 0-17.5-7.851-17.5-17.5v-86.24c0-4.142-3.358-7.5-7.5-7.5s-7.5 3.358-7.5 7.5v86.24c0 17.92 14.58 32.5 32.5 32.5h447c17.92 0 32.5-14.58 32.5-32.5v-314.335c0-17.921-14.58-32.5-32.5-32.5z"/></g></g></svg>