<svg height="511pt" viewBox="0 1 511 511.999" width="511pt" xmlns="http://www.w3.org/2000/svg"><g fill-rule="evenodd"><path d="m417.617188 7.558594h-362.65625c-25.808594 0-46.90625 21.078125-46.90625 46.871094v362.394531c0 25.789062 21.097656 46.898437 46.90625 46.898437h362.65625c25.808593 0 46.933593-21.109375 46.933593-46.898437v-362.394531c0-25.792969-21.125-46.871094-46.933593-46.871094zm0 0" fill="#7fbaeb"/><path d="m279.554688 236.257812-49.820313 66.863282 134.230469 160.605468h53.652344c25.808593 0 46.933593-21.113281 46.933593-46.902343v-47.546875l-69.238281-84.644532-39.007812-48.492187c-20.945313-29.410156-52.351563-32.355469-76.75.117187zm0 0" fill="#51db61"/><path d="m54.753906 281.628906-46.699218 62.859375v72.335938c0 25.792969 21.097656 46.902343 46.90625 46.902343h309.007812l-134.234375-160.605468-17.941406-21.492188-40.394531-50.226562c-21.683594-30.441406-54.210938-33.503906-79.460938.117187zm0 0" fill="#51db61"/><path d="m109.761719 74.09375c-19.859375 0-35.972657 16.105469-35.972657 35.980469 0 19.871093 16.113282 35.976562 35.972657 35.976562 19.886719 0 36.003906-16.105469 36.003906-35.976562 0-19.875-16.117187-35.980469-36.003906-35.980469zm0 0" fill="#ffc107"/><path d="m122.785156 237.90625c0 95.15625 49.910156 178.683594 124.980469 225.820312h116.199219l-134.230469-160.605468-17.941406-21.492188-40.394531-50.226562c-13.050782-18.3125-30.023438-26.703125-46.964844-23.171875-1.089844 9.746093-1.648438 19.636719-1.648438 29.675781zm0 0" fill="#1ab52c"/><path d="m316.355469 237.90625c0 92.773438 47.40625 174.441406 119.351562 222.167969 16.882813-7.09375 28.84375-23.847657 28.84375-43.25v-47.546875l-69.234375-84.644532-39.011718-48.492187c-10.929688-15.339844-24.6875-23.464844-38.800782-23.140625-.765625 8.214844-1.148437 16.515625-1.148437 24.90625zm0 0" fill="#1ab52c"/><path d="m411.902344 54.429688v250.488281l12.789062 15.632812h39.859375v-266.121093c0-25.792969-21.125-46.871094-46.933593-46.871094h-52.648438c25.808594 0 46.933594 21.078125 46.933594 46.871094zm0 0" fill="#5887d9"/><path d="m318.886719 481.980469c0 12.363281 10.109375 22.460937 22.480469 22.460937h139.066406c12.371094 0 22.507812-10.097656 22.507812-22.460937v-138.964844c0-12.367187-10.132812-22.464844-22.507812-22.464844h-139.066406c-12.371094 0-22.480469 10.097657-22.480469 22.464844zm0 0" fill="#eee"/><path d="m483.761719 343.015625v138.964844c0 12.363281-10.105469 22.460937-22.480469 22.460937h19.152344c12.375 0 22.511718-10.097656 22.511718-22.460937v-138.964844c0-12.367187-10.136718-22.464844-22.511718-22.464844h-19.152344c12.375 0 22.480469 10.097657 22.480469 22.464844zm0 0" fill="#bdbdbd"/></g><path d="m463.90625 398.710938c4.171875 0 7.554688-3.386719 7.554688-7.558594v-31.972656c0-4.175782-3.382813-7.558594-7.554688-7.558594h-32c-4.171875 0-7.554688 3.382812-7.554688 7.558594 0 4.171874 3.382813 7.554687 7.554688 7.554687h13.738281l-34.742187 34.710937-34.746094-34.710937h13.738281c4.171875 0 7.554688-3.382813 7.554688-7.554687 0-4.175782-3.382813-7.558594-7.554688-7.558594h-31.996093c-4.175782 0-7.558594 3.382812-7.558594 7.558594v31.972656c0 4.171875 3.382812 7.558594 7.558594 7.558594 4.171874 0 7.554687-3.386719 7.554687-7.558594v-13.742188l34.753906 34.71875-34.753906 34.71875v-13.742187c0-4.171875-3.382813-7.554688-7.554687-7.554688-4.175782 0-7.558594 3.382813-7.558594 7.554688v31.972656c0 4.175781 3.382812 7.558594 7.558594 7.558594h31.996093c4.171875 0 7.554688-3.382813 7.554688-7.558594 0-4.171875-3.382813-7.554687-7.554688-7.554687h-13.738281l34.746094-34.710938 34.742187 34.710938h-13.738281c-4.171875 0-7.554688 3.382812-7.554688 7.554687 0 4.175781 3.382813 7.558594 7.554688 7.558594h32c4.171875 0 7.554688-3.382813 7.554688-7.558594v-31.972656c0-4.171875-3.382813-7.554688-7.554688-7.554688-4.175781 0-7.558594 3.382813-7.558594 7.554688v13.742187l-34.753906-34.71875 34.753906-34.71875v13.742188c0 4.171875 3.382813 7.558594 7.558594 7.558594zm0 0"/><path d="m66.230469 110.074219c0 24.003906 19.527343 43.535156 43.53125 43.535156 24.019531 0 43.558593-19.53125 43.558593-43.535156 0-24.007813-19.539062-43.535157-43.558593-43.535157-24.003907 0-43.53125 19.527344-43.53125 43.535157zm71.976562 0c0 15.667969-12.761719 28.417969-28.445312 28.417969-15.667969 0-28.417969-12.75-28.417969-28.417969 0-15.671875 12.75-28.421875 28.417969-28.421875 15.683593 0 28.445312 12.75 28.445312 28.421875zm0 0"/><path d="m480.433594 312.992188h-8.324219v-258.5625c0-30.015626-24.445313-54.429688-54.492187-54.429688h-181.3125c-4.175782 0-7.558594 3.382812-7.558594 7.558594 0 4.171875 3.382812 7.554687 7.558594 7.554687h181.3125c21.714843 0 39.378906 17.636719 39.378906 39.316407v258.5625h-28.722656l-27.070313-33.097657-38.871094-48.320312c-11.929687-16.660157-27.367187-25.941407-43.488281-26.144531-.179688-.003907-.363281-.003907-.546875-.003907-11.550781 0-28.519531 4.644531-44.800781 26.320313l-44.09375 59.171875-11.765625-14.078125-40.214844-50.003906c-12.300781-17.183594-28.214844-26.757813-44.824219-26.964844-11.875-.144532-29.671875 4.433594-46.730468 27.144531l-18.394532 24.773437-5.066406 6.859376c-2.480469 3.359374-1.769531 8.089843 1.589844 10.570312 3.355468 2.480469 8.085937 1.769531 10.570312-1.589844l23.414063-31.570312c10.363281-13.796875 22.128906-21.078125 34.058593-21.078125.125 0 .246094 0 .371094.003906 11.722656.148437 23.382813 7.535156 32.832032 20.800781.085937.121094.175781.238282.269531.351563l40.394531 50.226562c.027344.039063.058594.074219.089844.109375l17.679687 21.160156c.15625.210938.328125.417969.511719.613282l87.144531 104.285156v43.632812h-256.371093c-21.695313 0-39.347657-17.648437-39.347657-39.339843v-69.839844l37.988281-51.101563c2.488282-3.351562 1.792969-8.085937-1.554687-10.574218-3.355469-2.492188-8.085937-1.792969-10.574219 1.554687l-25.859375 34.789063v-267.222656c0-21.679688 17.652344-39.316407 39.347657-39.316407h138.859374c4.171876 0 7.554688-3.382812 7.554688-7.554687 0-4.175782-3.382812-7.558594-7.554688-7.558594h-138.859374c-30.03125 0-54.460938 24.414062-54.460938 54.429688v362.394531c0 30.027343 24.429688 54.457031 54.460938 54.457031h256.371093v10.695312c0 16.554688 13.472657 30.023438 30.035157 30.023438h139.066406c16.578125 0 30.066406-13.46875 30.066406-30.019531v-138.964844c0-16.554687-13.488281-30.023437-30.066406-30.023437zm-241.066406-10.148438 46.230468-62.042969c10.066406-13.402343 21.542969-20.414062 33.054688-20.261719 11.234375.144532 22.421875 7.242188 31.5 19.988282.085937.117187.175781.238281.265625.351562l39.046875 48.535156 19.28125 23.578126h-67.375c-16.566406 0-30.039063 13.46875-30.039063 30.023437v45.941406zm256.019531 179.136719c0 8.21875-6.710938 14.90625-14.953125 14.90625h-139.066406c-8.226563 0-14.921876-6.6875-14.921876-14.90625v-72.226563c0-.011718 0-.019531 0-.027344v-66.710937c0-8.222656 6.695313-14.910156 14.921876-14.910156h139.066406c8.242187 0 14.953125 6.6875 14.953125 14.910156zm0 0"/></svg>