<svg xmlns="http://www.w3.org/2000/svg" xmlns:xlink="http://www.w3.org/1999/xlink" viewBox="0 0 365.68 830.35"><defs><style>.cls-1{fill:none;}.cls-2{isolation:isolate;}.cls-3{fill:#f9b434;}.cls-12,.cls-4{fill:#4987ea;}.cls-5{fill:#f0f0f0;}.cls-6{clip-path:url(#clip-path);}.cls-7{fill:#103e7b;}.cls-8{clip-path:url(#clip-path-2);}.cls-9{fill:#212121;}.cls-10{fill:#e7ded6;}.cls-11{fill:#ffb630;}.cls-12{opacity:0.5;mix-blend-mode:multiply;}.cls-13{fill:#fff;}</style><clipPath id="clip-path"><path class="cls-1" d="M143.57,172.9c-20.13,10.62-32.37,30.63-30,44.53s12.73,19.29,48.09,6,28.19-55,9.31-55.29S143.57,172.9,143.57,172.9Z"/></clipPath><clipPath id="clip-path-2"><path class="cls-1" d="M272,125c8.45-2.38,28.9-5,33.18.24s8.16,11,6.81,17.74-5.31,13.34-18.66,20.29-37.79,8.15-39.67-1-2.73-24.92,7.8-31.08Z"/></clipPath></defs><title>Kuno asomado</title><g class="cls-2"><g id="Layer_2" data-name="Layer 2"><g id="Layer_2-2" data-name="Layer 2"><path class="cls-3" d="M147.56,649.87s-15.31,27.58-25.4,55.51C115.38,724.15,115,745,108,750.54c-6.92,6.93-46.58-8.89-60.42-8.89S26.49,761.8,30,772.18s20.7,45.17,38.58,48.93c12.21,2.57,67.74,24.46,91.72-10.88,4.71-7,8.15-46.21,22.12-76.62,11.8-25.68,34.47-42.54,37.64-53.63C226.93,655.75,151,643,147.56,649.87Z"/><path class="cls-4" d="M282.71,222.59c-10.77-4.74-21.67-7.64-32.5-8.11-68.07-2.91-114.49,34.93-120.68,67,0,0-30.95,163-52.61,229.93s-12.37,227,195,200.83c3.69-.47,7.29-1,10.83-1.65Z"/><path class="cls-4" d="M61,51.47C85.67,25,137.84-2.88,194.85.24S299.51,35.87,323,89.66c25.46,58.37,5.21,124.79-39,171.18S122.53,314.25,68.71,291.76-29.32,148.38,61,51.47Z"/><path class="cls-4" d="M33.22,222.05S-5.11,277.29.79,316.36c4.71,15.21,68.84-35.19,98.39-42C99.18,274.39,63.74,242.1,33.22,222.05Z"/><path class="cls-5" d="M143.57,172.9c-20.13,10.62-32.37,30.63-30,44.53s12.73,19.29,48.09,6,28.19-55,9.31-55.29S143.57,172.9,143.57,172.9Z"/><path class="cls-5" d="M272,123c8.45-2.38,28.9-4.94,33.19.24s8.08,13,6.73,19.74-8.13,13.23-21.48,20.18-34.89,6.27-36.77-2.92-2.73-24.92,7.8-31.08Z"/><g class="cls-6"><ellipse class="cls-7" cx="171.52" cy="192.73" rx="20.09" ry="22.93" transform="translate(-30.21 31.89) rotate(-9.77)"/></g><g class="cls-8"><ellipse class="cls-7" cx="294.34" cy="146.8" rx="20.09" ry="18.92" transform="matrix(0.04, -1, 1, 0.04, 136.42, 435.33)"/></g><path class="cls-9" d="M181.32,173.56s-7.88-9.38-28.61-2.23S121.59,191,117.29,202.48s-5.55,22.43,4.79,27.81c0,0-18.88-.33-9-34.24s44-36.2,50.65-33.77S180.73,170.08,181.32,173.56Z"/><path class="cls-9" d="M254.77,163s-5.88-23.9,18.74-34c27.32-11.24,39.07,4.24,38.45,14,0,0,9.49-26.64-27.33-24C241.05,122,250.48,157.79,254.77,163Z"/><path class="cls-10" d="M282.65,327.49c-27.23-3.59-61.82,6.09-87.1,37.29-44.23,54.57-77.16,248.39,24.46,273.8,23.34,5.83,44.53,2.47,62.64-8.1Z"/><path class="cls-4" d="M123.34,304.71s-5.15,164.56,137,125.17c13.75-3.81,27.5-5.64,45.52-17.48s69.6-72.76,57.23-90.23-46.57,8.74-54.13,14.56c-39.34,30.3-68.08-14.56-77.36-46.57S123.34,281.43,123.34,304.71Z"/><path class="cls-11" d="M237.06,190c19-5.51,16.47,6.59,34.83,4.1s34.17-21.29,47.78-15.3,11.73,15.08,29.45,15.62,24.71,24.09,3.2,41.71S227.34,308,198.84,302c-19.11-4-51-26.42-51.3-39.12-.5-19.48,6-14.53,41.76-29.18S218.08,195.52,237.06,190Z"/><path class="cls-12" d="M.18,306.94c.24,3.84,22.25,2.95,35.2-6.4s30.95-22.31,33.1-30.22c0,0,5.76,2.15,33.11,5s46.53-8.87,46.53-8.87,37.66,34.78,73.64,21.83S361.36,230,365.32,210.59c0,0,3.42,14-17.18,29S282.68,276,282.68,276l.06,70.76s-7.28,1.65-22.84-8.75c-6.65-4.44-12.24-12.24-25.19-22.31s-76.05-8.53-115.85-12.95c-38.86-4.32-54-12.24-54-12.24s-26.63,15.36-32.75,18.47-15,7.81-21,9-8.2,1-10-1S.18,306.94.18,306.94Z"/><path class="cls-12" d="M232.55,204.83c-1.5-3.27,0,15.11-5,16.55C227.52,221.38,240.47,222.1,232.55,204.83Z"/><path class="cls-12" d="M111.66,217.79c0-10.08,5.76-27.35,20.15-38.86s30.94-13,36.7-12.24,10.79,4.08,12.59,6.36,6.36,9.71,5.52,18.23c0,0-19.55-3.72-36.1,2.76S111.66,217.79,111.66,217.79Z"/><path class="cls-12" d="M258.46,135.75c4.73-4,17.75-12.23,29.38-13s21.47,5.76,22.67,9.35,1.92,7.44,1.56,9.84c0,0-19.79-3.36-24.83-1.92s-30,13.67-31.9,23.39C255.34,163.46,244.79,147.26,258.46,135.75Z"/><path class="cls-12" d="M356.32,354.15S288,409.2,260.62,413.52s-76.28-1.44-94.27-25.91c0,0-5.76,51.81-5,70.52s30.47,101.22,121.37,72.92l.24-107.46s15.84-4.32,33.11-19.43C333.71,388.69,356.32,354.15,356.32,354.15Z"/><path class="cls-12" d="M73.88,607.45s24.17,39.32,68,58.64C189.82,687.23,258.1,688.47,266.37,687l16.19-3.6.36,27.35s-54.69,7.2-87.07,1.8c0,0-10.25,12-15.92,26.71,0,0-20.06-27.79-29.41-33.55s-20-10.25-24.74-9.8l3-6.3a193.08,193.08,0,0,1-33.16-31.63C80.72,639.47,73.88,607.45,73.88,607.45Z"/><path class="cls-12" d="M29.63,759.64c6.47-3.6,46.66-2.09,53.25,9.36,16.55,28.78,58.28,43.17,66.92,42.45s5.28,6.48,1.2,8.64-13.43,12.47-40.78,9.83-46-8.63-53.25-14.63-26.62-34.78-27.34-44.13S29.63,759.64,29.63,759.64Z"/><circle class="cls-13" cx="174.82" cy="177.75" r="3.5" transform="translate(-58.28 89.31) rotate(-24.7)"/><circle class="cls-13" cx="295.89" cy="134.77" r="3.5" transform="translate(-29.25 135.97) rotate(-24.7)"/><path class="cls-9" d="M175.88,128c-7,1.74-14,3.3-21,5q-5.25,1.22-10.48,2.5c-3.49.82-7,1.66-10.37,2.59a37.43,37.43,0,0,0-9,4.23l-8.66,5.36c-2.91,1.81-5.8,3.69-8.67,5.67s-5.7,4-8.59,6.37h0a.42.42,0,0,1-.59-.06.44.44,0,0,1-.08-.38,30.21,30.21,0,0,1,5.35-10,50.58,50.58,0,0,1,7.93-8.09c5.86-4.85,13.09-7.79,20.88-9.34,3.64-.61,7.22-1.1,10.81-1.57s7.18-.83,10.76-1.21l10.79-1c3.59-.34,7.18-.62,10.79-.87a.4.4,0,0,1,.12.79Z"/><path class="cls-9" d="M227.36,110.47q4.78-2.55,9.62-5l9.68-4.85q4.86-2.37,9.78-4.67c3.29-1.5,6.58-3,10-4.39,7.43-2.81,15.12-4.14,22.65-3.12a50.25,50.25,0,0,1,11,2.66A30.25,30.25,0,0,1,310,96.81a.41.41,0,0,1,0,.59.39.39,0,0,1-.35.13h0c-3.69-.45-7.17-.7-10.66-.86s-6.93-.23-10.36-.22l-10.18,0a37.06,37.06,0,0,0-9.84,1.14c-3.36,1-6.77,2.14-10.16,3.29s-6.82,2.26-10.22,3.43c-6.85,2.23-13.64,4.62-20.5,6.86a.41.41,0,0,1-.51-.26A.4.4,0,0,1,227.36,110.47Z"/></g></g></g></svg>