<svg height="511pt" viewBox="1 0 511.99837 511" width="511pt" xmlns="http://www.w3.org/2000/svg"><path d="m19.785156 496.121094-3.523437-3.527344c-11.710938-11.714844-11.710938-30.703125 0-42.417969l162.230469-162.292969 45.945312 45.964844-162.214844 162.273438c-11.714844 11.722656-30.71875 11.722656-42.4375 0zm0 0" fill="#d67e4a"/><path d="m201.488281 310.886719-162.226562 162.289062c-8.210938 8.214844-20 10.660157-30.351563 7.355469 1.410156 4.414062 3.855469 8.566406 7.355469 12.066406l3.535156 3.535156c11.710938 11.71875 30.699219 11.71875 42.410157 0l162.226562-162.285156zm0 0" fill="#a9692e"/><path d="m448.339844 326.929688c-74.164063 73.683593-193.59375 74.492187-266.757813 1.800781-73.160156-72.6875-72.351562-191.347657 1.8125-265.03125 74.164063-73.683594 193.59375-74.488281 266.757813-1.800781 73.164062 72.691406 72.351562 191.347656-1.8125 265.03125zm0 0" fill="#01cef0"/><path d="m450.152344 61.898438c-48.601563-48.289063-117.617188-64.128907-180.21875-47.730469 18.996094 8.828125 36.777344 21.007812 52.433594 36.5625 73.160156 72.691406 72.351562 191.347656-1.8125 265.03125-24.898438 24.738281-54.898438 41.246093-86.535157 49.535156 69.773438 32.429687 156.027344 19.550781 214.320313-38.363281 74.164062-73.6875 74.976562-192.34375 1.8125-265.035156zm0 0" fill="#1cb4d6"/><path d="m406.0625 284.925781c-50.496094 50.167969-131.808594 50.714844-181.621094 1.226563-49.8125-49.492188-49.261718-130.28125 1.234375-180.449219 50.492188-50.164063 131.808594-50.714844 181.621094-1.222656 49.8125 49.488281 49.257813 130.277343-1.234375 180.445312zm0 0" fill="#e9f3fe"/><path d="m407.296875 104.476562c-30.550781-30.351562-72.945313-41.875-112.816406-34.683593 16.40625 6.097656 31.761719 15.675781 44.921875 28.75 49.8125 49.492187 49.261718 130.28125-1.234375 180.449219-19.527344 19.398437-43.664063 31.375-68.804688 35.910156 45.699219 16.984375 99.542969 6.9375 136.699219-29.976563 50.492188-50.167969 51.046875-130.957031 1.234375-180.449219zm0 0" fill="#c9e9f4"/><path d="m211.898438 121.417969c-3.484376-2.242188-8.125-1.234375-10.367188 2.25-16.472656 25.605469-23.914062 56.34375-20.949219 86.550781 3.015625 30.675781 16.710938 59.535156 38.570313 81.253906 26.105468 25.933594 60.457031 38.875 94.964844 38.875 35.089843 0 70.34375-13.386718 97.230468-40.101562 26.085938-25.914063 40.449219-60.246094 40.449219-96.671875 0-35.761719-13.925781-69.292969-39.214844-94.417969-21.851562-21.710938-50.875-35.3125-81.726562-38.300781-30.367188-2.945313-61.285157 4.441406-87.039063 20.796875-3.496094 2.21875-4.53125 6.855468-2.308594 10.351562 2.21875 3.5 6.855469 4.535156 10.351563 2.3125 22.945313-14.570312 50.488281-21.152344 77.546875-18.53125 27.417969 2.65625 53.199219 14.738282 72.601562 34.015625 22.433594 22.289063 34.789063 52.039063 34.789063 83.777344 0 32.394531-12.792969 62.949219-36.019531 86.027344-47.5 47.191406-124.234375 47.738281-171.050782 1.226562-19.394531-19.269531-31.542968-44.867187-34.214843-72.078125-2.636719-26.855468 3.980469-54.191406 18.636719-76.972656 2.238281-3.480469 1.234374-8.125-2.25-10.363281zm0 0"/><path d="m455.4375 56.578125c-75.960938-75.46875-200.371094-74.664063-277.328125 1.800781-37.640625 37.398438-58.371094 86.9375-58.371094 139.492188 0 38.425781 11.15625 75.066406 31.925781 106.242187l-43.167968 43.183594c-2.929688 2.929687-2.929688 7.679687 0 10.605469 2.929687 2.929687 7.679687 2.929687 10.609375 0l41.472656-41.488282c8.046875 10.222657 17.144531 19.628907 27.0625 28.046876 2.816406 2.394531 5.703125 4.703124 8.652344 6.933593l-139.386719 139.4375c-4.246094 4.246094-9.894531 6.589844-15.902344 6.589844-6.003906 0-11.652344-2.34375-15.902344-6.589844l-3.53125-3.535156c-8.773437-8.773437-8.773437-23.050781 0-31.824219l72.792969-72.816406c2.925781-2.929688 2.925781-7.679688-.003906-10.609375-2.929687-2.925781-7.679687-2.925781-10.605469.003906l-72.792968 72.816407c-14.613282 14.621093-14.613282 38.414062 0 53.035156l3.535156 3.535156c7.082031 7.082031 16.496094 10.984375 26.507812 10.984375 10.015625 0 19.429688-3.902344 26.515625-10.984375l141.296875-141.351562c23.902344 15.226562 50.933594 24.972656 79.828125 28.601562 8.085938 1.015625 16.226563 1.515625 24.367188 1.515625 33.691406 0 67.355469-8.597656 96.847656-24.996094 3.617187-2.011719 4.921875-6.578125 2.910156-10.199219-2.015625-3.617187-6.582031-4.921874-10.199219-2.910156-33.851562 18.820313-73.652343 26.53125-112.058593 21.703125-28.410157-3.566406-54.867188-13.53125-77.953125-29.199219-1.574219-1.265624-3.292969-2.324218-4.929688-3.503906-1.726562-1.246094-3.417968-2.539062-5.09375-3.851562-3.328125-2.613282-6.566406-5.339844-9.699218-8.179688-5.949219-5.382812-11.53125-11.179687-16.699219-17.320312-3.101563-3.6875-5.871094-7.605469-8.847657-11.390625-21.148437-29.6875-32.550781-65.167969-32.550781-102.484375 0-48.527344 19.15625-94.289063 53.945313-128.851563 71.128906-70.667969 186.050781-71.476562 256.183594-1.796875 33.617187 33.398438 52.128906 77.984375 52.128906 125.539063 0 48.527343-19.15625 94.289062-53.941406 128.847656-4.058594 4.035156-8.335938 7.910156-12.710938 11.523437-3.191406 2.636719-3.644531 7.363282-1.007812 10.558594 2.640624 3.195313 7.367187 3.644532 10.558593 1.007813 4.726563-3.902344 9.347657-8.089844 13.734375-12.445313 37.640625-37.398437 58.371094-86.9375 58.371094-139.492187 0-51.582031-20.089844-99.945313-56.5625-136.183594zm0 0"/></svg>