<svg id="Capa_1" enable-background="new 0 0 511.833 511.833" height="512" viewBox="0 0 511.833 511.833" width="512" xmlns="http://www.w3.org/2000/svg"><g><g><path d="m415.626 132.367v-100.89h-359.999v208.88h88.707v-107.99z" fill="#fff"/><path d="m144.333 240.358v-107.99h360v240h-136.83v-132.012z" fill="#fff"/><path d="m467.337 342.367h-99.83l-.01-102.01h-193.16v-70.99c0-3.866 3.134-7 7-7h286c3.866 0 7 3.134 7 7v166c0 3.866-3.135 7-7 7z" fill="#5f99d7"/><path d="m367.497 260.357h30v82.01h-30z" fill="#3c87d0"/><path d="m474.332 169.367v13h-263c-3.86 0-7 3.13-7 7v50.99h-30v-70.99c0-3.87 3.14-7 7-7h286c3.87 0 7 3.13 7 7z" fill="#3c87d0"/><path d="m367.5 240.356c0-8.478 4.833-29.148 26.723-29.148 14.67 0 26.56 11.89 26.56 26.56 0 2.36-.31 4.65-.89 6.83.3-.01.59-.04.89-.04 10.93 0 19.78 8.85 19.78 19.77s-8.85 19.78-19.78 19.78h-53.28z" fill="#eaf6ff"/><path d="m385.623 132.368v-63.89c0-3.866-3.134-7-7-7h-286c-3.866 0-7 3.134-7 7v164.88c0 3.866 3.134 7 7 7h51.711v-107.991z" fill="#f07281"/><path d="m385.622 68.477v13h-263c-3.86 0-7 3.14-7 7v151.88h-23c-3.86 0-7-3.13-7-7v-164.88c0-3.86 3.14-7 7-7h286c3.87 0 7 3.14 7 7z" fill="#eb5569"/><path d="m7.5 240.356h360v240h-360z" fill="#fff" transform="matrix(-1 0 0 -1 375 720.713)"/><path d="m337.496 443.357v-166c0-3.866-3.134-7-7-7h-286c-3.866 0-7 3.134-7 7v166c0 3.866 3.134 7 7 7h286c3.866 0 7-3.134 7-7z" fill="#d8ecfe"/><path d="m337.492 277.357v13h-263c-3.86 0-7 3.13-7 7v153h-23c-3.86 0-7-3.13-7-7v-166c0-3.87 3.14-7 7-7h286c3.87 0 7 3.13 7 7z" fill="#c4e2ff"/><path d="m67.492 399.127v37.92l-27.06 12.01c-1.78-1.27-2.94-3.35-2.94-5.7v-58.47l.01-.01z" fill="#9be27d"/><path d="m272.732 450.357h57.76c3.87 0 7-3.13 7-7v-28.48l-16.13-4.25-81.32-21.43-40.68-10.72-90.63 40.25h-.01l-68.29 30.33c1.15.82 2.55 1.3 4.06 1.3h195.55z" fill="#b0ef9a"/><path d="m108.742 418.727-68.31 30.33c-1.78-1.27-2.94-3.35-2.94-5.7v-58.47l.01-.01z" fill="#b0ef9a"/><path d="m67.492 399.127v37.92l-27.06 12.01c-1.78-1.27-2.94-3.35-2.94-5.7v-58.47l.01-.01z" fill="#9be27d"/><circle cx="114.069" cy="327.617" fill="#fff0ad" r="32.109"/><path d="m129.072 356.017c-4.47 2.37-9.58 3.71-15 3.71-17.74 0-32.11-14.38-32.11-32.11s14.37-32.11 32.11-32.11c5.42 0 10.53 1.34 15 3.71-10.18 5.39-17.11 16.09-17.11 28.4s6.93 23.01 17.11 28.4z" fill="#ffde89"/></g><g><path d="m504.333 124.868h-81.211v-93.391c0-4.142-3.358-7.5-7.5-7.5h-263.19c-4.142 0-7.5 3.358-7.5 7.5s3.358 7.5 7.5 7.5h255.69v85.892h-14.999v-56.39c0-7.995-6.505-14.5-14.5-14.5h-286c-7.995 0-14.5 6.505-14.5 14.5v164.378h-15.001v-193.88h56.63c4.142 0 7.5-3.358 7.5-7.5s-3.358-7.5-7.5-7.5h-64.13c-4.142 0-7.5 3.358-7.5 7.5v201.38h-40.622c-4.142 0-7.5 3.358-7.5 7.5v240c0 4.142 3.358 7.5 7.5 7.5h360c4.142 0 7.5-3.358 7.5-7.5v-100.489h129.333c4.142 0 7.5-3.358 7.5-7.5v-240c0-4.142-3.358-7.5-7.5-7.5zm-411.21-55.89h285v55.89l-233.789-.001c-2.988 0-5.815 1.871-6.936 4.649-.362.88-.565 1.842-.565 2.852v100.488h-43.71zm-78.123 403.878v-225h40.612.01s.006 0 .01 0h36.962c.01 0 .019.001.029.001h51.711c.01 0 .019-.001.029-.001h29.959.01 185.661l.007 74.614v150.386zm399.026-223.586c1.479 1.857 3.755 2.897 6.123 2.824.187-.006.372-.017.556-.028l.079-.008c6.771 0 12.28 5.504 12.28 12.27 0 6.771-5.509 12.28-12.28 12.28h-45.781l-.003-36.252c0-.219.221-21.648 19.223-21.648 10.51 0 19.06 8.55 19.06 19.06 0 1.662-.215 3.311-.638 4.902-.61 2.294-.098 4.743 1.381 6.6zm82.807 115.598h-121.833v-15.001h92.332c7.995 0 14.5-6.505 14.5-14.5v-108.07c0-4.142-3.358-7.5-7.5-7.5s-7.5 3.358-7.5 7.5v107.57h-91.831l-.001-14.923v-28.336h45.783c15.042 0 27.28-12.238 27.28-27.28 0-12.438-8.373-22.958-19.781-26.223.001-.112.001-.225.001-.337 0-18.781-15.279-34.06-34.06-34.06-21.094 0-30.896 15.467-33.493 29.148h-178.898v-62.99h285v24.74c0 4.142 3.358 7.5 7.5 7.5s7.5-3.358 7.5-7.5v-25.24c0-7.995-6.505-14.5-14.5-14.5h-286c-7.995 0-14.5 6.505-14.5 14.5v63.49h-14.998v-92.988h344.999z"/><path d="m330.492 262.857h-286c-7.995 0-14.5 6.505-14.5 14.5v166c0 4.609 2.169 8.714 5.532 11.372 2.405 2.077 5.832 3.128 8.968 3.128h195.55c4.142 0 7.5-3.358 7.5-7.5s-3.358-7.5-7.5-7.5h-167.165l38.909-17.276c.017-.008.032-.018.048-.026l88.164-39.155 129.994 34.256v22.2h-57.26c-4.142 0-7.5 3.358-7.5 7.5s3.358 7.5 7.5 7.5h57.76c7.995 0 14.5-6.505 14.5-14.5v-28.48-137.52c0-7.994-6.505-14.499-14.5-14.499zm-285.5 175.968v-42.085l45.78 21.753zm151.326-67.203-87.475 38.849-63.851-30.339v-102.275h285v127.288l-128.719-33.92c-1.648-.436-3.396-.296-4.955.397z"/><path d="m114.068 288.008c-21.84 0-39.609 17.769-39.609 39.609s17.769 39.609 39.609 39.609c21.841 0 39.609-17.769 39.609-39.609s-17.768-39.609-39.609-39.609zm0 64.218c-13.569 0-24.609-11.04-24.609-24.609s11.04-24.609 24.609-24.609c13.57 0 24.609 11.04 24.609 24.609s-11.039 24.609-24.609 24.609z"/><path d="m263.887 309.951h.337c6.801 0 12.333 5.533 12.333 12.333 0 4.142 3.358 7.5 7.5 7.5s7.5-3.358 7.5-7.5c0-6.801 5.533-12.333 12.333-12.333h.337c4.142 0 7.5-3.358 7.5-7.5s-3.358-7.5-7.5-7.5h-.337c-7.804 0-14.848 3.292-19.833 8.555-4.985-5.262-12.03-8.555-19.833-8.555h-.337c-4.142 0-7.5 3.358-7.5 7.5s3.358 7.5 7.5 7.5z"/><path d="m207.67 357.554c4.142 0 7.5-3.358 7.5-7.5 0-6.801 5.533-12.333 12.333-12.333h.337c4.142 0 7.5-3.358 7.5-7.5s-3.358-7.5-7.5-7.5h-.337c-7.804 0-14.848 3.292-19.833 8.555-4.985-5.262-12.03-8.555-19.833-8.555h-.337c-4.142 0-7.5 3.358-7.5 7.5s3.358 7.5 7.5 7.5h.337c6.8 0 12.333 5.533 12.333 12.333 0 4.142 3.358 7.5 7.5 7.5z"/></g></g></svg>