<svg xmlns="http://www.w3.org/2000/svg" xmlns:xlink="http://www.w3.org/1999/xlink" viewBox="0 0 278.73 349.95"><defs><style>.cls-1{fill:none;}.cls-2{isolation:isolate;}.cls-3{clip-path:url(#clip-path);}.cls-17,.cls-4{fill:#ffb630;}.cls-5,.cls-6{fill:#fada5c;}.cls-11,.cls-5{opacity:0.5;}.cls-11,.cls-17,.cls-5,.cls-8{mix-blend-mode:multiply;}.cls-7{fill:#ece994;}.cls-11,.cls-8,.cls-9{fill:#4987ea;}.cls-17,.cls-8{opacity:0.3;}.cls-10{fill:#e7ded6;}.cls-12{fill:#f0f0f0;}.cls-13{fill:#103e7b;}.cls-14{fill:#fff;}.cls-15{fill:#212121;}.cls-16{fill:#3f81aa;}.cls-18{fill:#9ee476;}</style><clipPath id="clip-path" transform="translate(-20.36 -7.22)"><rect class="cls-1" width="299" height="261"/></clipPath></defs><title>Patitos_1</title><g class="cls-2"><g id="Layer_2" data-name="Layer 2"><g id="Layer_2-2" data-name="Layer 2"><g class="cls-3"><g id="Patitos"><g id="Suki_Kuno" data-name="Suki Kuno"><g id="Patas_suki" data-name="Patas suki"><path id="pata_der" data-name="pata der" class="cls-4" d="M202.57,298.13c3.18,10.32,4.36,17.57-1.59,27.05-1.68,1.18-4.45,1.25-4.77,4.17-.16,1.46-1.5,1.55,3.12,3.58S214,343.21,220,345c1.53.45,12-6.28,11-8-1.56-2.78-8.95-3.58-9.47-7.65,8.73-10.14,14.73-23.8,12.11-36.78S201.76,283.86,202.57,298.13Z" transform="translate(-20.36 -7.22)"/><path class="cls-5" d="M230.76,316.25a27.91,27.91,0,0,0-14-5.52c-4.74-.34-7.14.79-11.16,2.28a19.67,19.67,0,0,0-.77-7.46c8.86-.24,21.23,1.16,29-3.68C233.47,306.89,232.8,311.63,230.76,316.25Z" transform="translate(-20.36 -7.22)"/><path class="cls-4" d="M267,265s24-2,27,5-5,18-5,18,6,12,8,12,3,6,1,6-12,0-16-3-13-13-12-15l-11-6Z" transform="translate(-20.36 -7.22)"/><path class="cls-5" d="M269.13,287.5S273,272,277,269a19.45,19.45,0,0,1,8.19-3.56S276,264,272,265c0,0-2.75,6.5-4.37,10.75a49.68,49.68,0,0,1-4.38,8.38Z" transform="translate(-20.36 -7.22)"/></g><g id="Panza_suki" data-name="Panza suki"><path id="panza" class="cls-6" d="M199.62,172.3C192.37,171.54,184,176,180,184s-6.32,13.6-12,27c-7.77,18.33-12.72,52.54,1.6,71.44S195,308.25,220,308s42.52-13.37,51.56-43.23S261.53,199.31,237,186C217.79,175.57,211.58,173.55,199.62,172.3Z" transform="translate(-20.36 -7.22)"/><path id="Panza_brillo" data-name="Panza brillo" class="cls-7" d="M270,247.14c-1.3-29.27-39.9-66.59-60.26-52.52s-21.55,53.41-20,69.13S203,309.82,228.75,307,271.27,276.42,270,247.14Z" transform="translate(-20.36 -7.22)"/><path id="sombra_panza" data-name="sombra panza" class="cls-5" d="M183.16,297.81S214,320,246,301c28.62-17,28-51,28-51s-8.66,23.43-37,36S185.8,298.83,183.16,297.81Z" transform="translate(-20.36 -7.22)"/></g><g id="Patas_Kuno" data-name="Patas Kuno"><path id="pata_izq" data-name="pata izq" class="cls-4" d="M102,314l5,33a8.76,8.76,0,0,0-2,6c0,2,2,2,4,2h31c1,0,1-3-1-4-3.22-1.61-12-8-12-8s7-26,8-35S100,296,102,314Z" transform="translate(-20.36 -7.22)"/><path class="cls-8" d="M130.08,330s-9.5-3-15.5-3a15.3,15.3,0,0,0-10,4L102,314s30.67-.67,33-4Z" transform="translate(-20.36 -7.22)"/><path id="pata_izq-2" data-name="pata izq" class="cls-4" d="M89.6,312.93c-8.69,8.39-7.63,14.39-.66,23.29,1.73,1.22,3.46,1,4.06,3.78.3,1.41.53,3.95-4,6s-14.4,8.42-20,11c-2.8,1.29-10.18-5-9-7,1.91-3.18,10.37-4.13,9.78-9.31C55.34,328.77,55,312.72,62.4,299S97.68,300.71,89.6,312.93Z" transform="translate(-20.36 -7.22)"/><path class="cls-8" d="M58.68,324.24c4-1.75,8.72-3.76,13-3.47S79.46,324.08,83,326a20.81,20.81,0,0,1,6.66-12.87c-9.32-2.53-22.19-5.67-28.63-13.25C59.28,308.08,56.58,315.83,58.68,324.24Z" transform="translate(-20.36 -7.22)"/></g><g id="Panza_kuno" data-name="Panza kuno"><path id="panza-2" data-name="panza" class="cls-9" d="M93.47,179.74c-14.3,12.65-22,14.17-33.26,33.3S29.9,261.43,39.7,287.58,70,320.27,95.19,320.66s45.42-8.11,55.08-32.48S149,224.6,135,206,112.18,187.58,93.47,179.74Z" transform="translate(-20.36 -7.22)"/><path id="Panza_brillo-2" data-name="Panza brillo" class="cls-10" d="M133.94,271.82c1.37-26.54-13.89-63.61-43.58-62.23s-44,36.24-44.8,61.42,15.61,48.17,43.61,49.26S132.56,298.36,133.94,271.82Z" transform="translate(-20.36 -7.22)"/><path id="sombra_panza-2" data-name="sombra panza" class="cls-8" d="M39,285c5.67,24.63,30.56,35,54,36,23,1,49-9,55-29-5.2,17.33-30.82,14.22-49.78,13.64S55.52,296.05,39,285Z" transform="translate(-20.36 -7.22)"/><path class="cls-8" d="M150.58,287S147,268.83,140.5,263.92c0,0-1.83-34.42-.17-36.17l8.84,8.17a109.07,109.07,0,0,1,3,12.58c.83,5.5,2.5,15.17,1.66,21.83S152.17,283,150.58,287Z" transform="translate(-20.36 -7.22)"/></g><path id="mano_izq" class="cls-9" d="M119.86,190.41s10.72-2.67,19.54,2c10.69,5.7,16.36,7.59,23.36,13.58,15.38,13.17,21.49,20.17,15.24,28-8,10-22.83,3.14-29-4s-5.31-9.89-13.07-20.83A140.81,140.81,0,0,0,119.86,190.41Z" transform="translate(-20.36 -7.22)"/><path class="cls-9" d="M86.2,197.64s-24.32-.73-44.72,5.07-20.77,18-19.11,22.78,18.5,24.74,46.52,11.85c13-4.79,12-11.73,3.43-15.61l-8.47-2.88Z" transform="translate(-20.36 -7.22)"/><path class="cls-11" d="M65,206s-16,2-19,5c0,0,24,10.83,25.5,10.42C71.5,221.42,58,214,65,206Z" transform="translate(-20.36 -7.22)"/><path class="cls-11" d="M47.33,241.58A33.78,33.78,0,0,0,67,244c11-2,16.83-7.83,10.42-11.92,0,0-13.42,5.92-24.42,5.92a125,125,0,0,1-20.67-1.83S40.67,241,44.83,241Z" transform="translate(-20.36 -7.22)"/><g id="Cara_kuno" data-name="Cara kuno"><path class="cls-9" d="M37.5,150.48s-7.62,25.59-15.06,32.37c-5.4,4.91,1.27,6.73,2.48,6.35s29.2-.18,24-10.92C46.51,173.18,39.92,153.69,37.5,150.48Z" transform="translate(-20.36 -7.22)"/><path class="cls-11" d="M47.46,184.6s-8.57-9.17-11.5-20.93c0,0,1.36,22.1-3.42,25.06C32.54,188.73,43,187.64,47.46,184.6Z" transform="translate(-20.36 -7.22)"/><path id="cabeza" class="cls-9" d="M97.2,86.68c32.35-2.19,64.43,18.37,69.94,52.85,3.64,22.82-6.39,43.82-43.13,57.07-21.49,7.74-39.09,7.81-58.3,2.82C47.6,194.72,31,166.13,32.67,145,35.55,109.64,61.58,89.1,97.2,86.68Z" transform="translate(-20.36 -7.22)"/><path id="ojo_der" data-name="ojo der" class="cls-12" d="M51.17,157.52s2.28,7.86,19.5,6.7c15.48-1.05,17.21-12.2,16.08-14.13S78,142.39,69,143s-11.94,4.55-14.31,7.26A16.93,16.93,0,0,0,51.17,157.52Z" transform="translate(-20.36 -7.22)"/><circle id="pupila_der" class="cls-13" cx="55.62" cy="146.61" r="9"/><path id="ojo_der-2" data-name="ojo_der" class="cls-8" d="M51.17,157.52s.18-2.45,2.59-6.19,7.48-7,14.49-8c6-.4,13.37,2.6,15.44,4.72s3,3.34,3,3.34.75,1.79-1.48,5.82-6.26-3.58-15.24-3-14.79,7.35-15.56,7.07-3-1.89-3.26-3.79" transform="translate(-20.36 -7.22)"/><circle id="brillo_ojo_der" data-name="brillo ojo der" class="cls-14" cx="80.98" cy="150.66" r="1.83" transform="matrix(1, -0.07, 0.07, 1, -30.44, -1.35)"/><path class="cls-15" d="M88.17,140.15a2.21,2.21,0,0,1-1.53.08,12.33,12.33,0,0,1-1.35-.4c-.88-.31-1.73-.68-2.57-1.05l-5-2.21c-1.65-.73-3.32-1.41-5-2a16.48,16.48,0,0,0-4.89-1,15.85,15.85,0,0,0-4.84.92c-1.62.51-3.25,1.06-4.88,1.62a57.1,57.1,0,0,0-9.74,4.17h0a.22.22,0,0,1-.29-.08.25.25,0,0,1,0-.19,13.6,13.6,0,0,1,3.67-4.47,23.84,23.84,0,0,1,4.84-3.13,21.63,21.63,0,0,1,11.48-2,19.53,19.53,0,0,1,5.65,1.73c1.72.81,3.34,1.72,4.93,2.66l4.66,2.9c.77.47,1.55.94,2.34,1.36a10,10,0,0,0,1.19.58,1.89,1.89,0,0,0,1.15.18h0a.2.2,0,0,1,.26.11A.18.18,0,0,1,88.17,140.15Z" transform="translate(-20.36 -7.22)"/><path class="cls-15" d="M105.07,146.78c3.17-1.88,6.35-3.71,9.48-5.61s6.29-3.79,9.28-5.79c.37-.25.74-.5,1.08-.76l1.12-.82c.79-.59,1.6-1.14,2.44-1.66a17,17,0,0,1,5.46-2.28,16.25,16.25,0,0,1,6-.2,10.81,10.81,0,0,1,5.42,2.36.21.21,0,0,1,0,.3.19.19,0,0,1-.17.07A27.83,27.83,0,0,0,135,133.84c-1.6.5-3.23,1-4.82,1.59a19.68,19.68,0,0,0-2.32,1.1l-1.18.7c-.41.26-.83.48-1.24.71-3.28,1.82-6.62,3.36-10,4.88s-6.75,3-10.17,4.32A.2.2,0,0,1,105,147,.19.19,0,0,1,105.07,146.78Z" transform="translate(-20.36 -7.22)"/><path class="cls-9" d="M159.39,137.2s11,24.33,19.29,30c6,4.14-.36,6.84-1.6,6.63s-29,3.77-25.3-7.58C153.51,160.91,157.41,140.71,159.39,137.2Z" transform="translate(-20.36 -7.22)"/><path class="cls-15" d="M55,161.06a5.85,5.85,0,0,1-2-7.46c2.16-4.83,9.56-8.78,14-9.6s13.6.74,16.57,5.34,2.89,5.59,2.89,5.59,2.25-6.69-1.87-9.41S72.32,140.27,66,142s-13.74,6.25-15.4,10.82S52.73,161.81,55,161.06Z" transform="translate(-20.36 -7.22)"/><path class="cls-4" d="M98.59,166.83c-11.77.77-12,5.1-18.67,7.7-6.44,2.52-8,1.94-14.14,1.92s-13.94-4.65-17.62-1.7-.75,20.74,31.53,21.38c51,1,70.07-20.2,64.92-25.9s-13.58,2-18.31,2.53C113.41,174.2,106.79,166.3,98.59,166.83Z" transform="translate(-20.36 -7.22)"/><path class="cls-15" d="M110.43,158.46s2.89-10.66,20.51-12c7.38-.89,13.27,3.66,11,3.44s-10.21-3.24-19.26,1.44S111.63,158.8,110.43,158.46Z" transform="translate(-20.36 -7.22)"/><path id="nariz_der" class="cls-8" d="M88.58,177c3.92-1.27,5.71-4.39,4.65-5.32S88.58,177,88.58,177Z" transform="translate(-20.36 -7.22)"/><path id="nariz_izq" class="cls-8" d="M107.79,175.73c-4.06-.73-6.26-3.58-5.33-4.65S107.79,175.73,107.79,175.73Z" transform="translate(-20.36 -7.22)"/><path class="cls-11" d="M147,103s-15-9-24,6-3,24-5,30c0,0-5,13.63,0,12,0,0,0,15-4,20.5,0,0,7,9.13,11,11.5s-1,7-1,7-29.5,9.25-56.25,5.13c0,0,33.25,13.87,50.25,9.87s26.38-3.87,26.38-3.87l6.75-2.63-14.63-7.37S149,186,151,181s10.5-12.5,10.5-31.5,4-24-4-35S147,103,147,103Z" transform="translate(-20.36 -7.22)"/></g><g id="brazos_suki" data-name="brazos suki"><path id="mano_izq-2" data-name="mano_izq" class="cls-6" d="M232,187a85.24,85.24,0,0,0,31-15c8.63-6.83,18.35-19.25,21-27,7.05-20.65,4.45-35.22-3-46.79s-13.34-10.15-16.49-.48-1.31,33.76-4.56,47.92C258.22,153,229,172,228,176,225.14,187.46,232,187,232,187Z" transform="translate(-20.36 -7.22)"/><path id="sombra_mano_der" data-name="sombra mano der" class="cls-5" d="M274.27,106.51c1,9.8,1.65,26.09-6.27,42.49s-38,35-38,35,27.78-27.8,29.73-48.33c1.85-19.37,3.32-36.48,6.22-41.08S273.31,96.84,274.27,106.51Z" transform="translate(-20.36 -7.22)"/><path id="mano_der" class="cls-6" d="M185,208c1.83-.53,6.37-11.94,1.19-12.88-19.63-3.54-51.35,5.5-62.71,20.49-14.72,19.41-7.79,32,1.45,45.5s13.25,13.05,16.65-1-6.26-23.5,4.71-39.15C154.53,209.22,170,212.31,185,208Z" transform="translate(-20.36 -7.22)"/><path id="sombra_mano_der-2" data-name="sombra mano der" class="cls-5" d="M130.11,252.32c-2.18-10.83-.5-37.14,16.71-45C157.38,202.56,164,203,170,204s8,3,9,4,1,4,0,6a6.26,6.26,0,0,1-4,3l-7-6c-12.61,1.65-21.69,7.05-25.34,16.31-6,15.2,4.55,27.51-1.51,35.84S132.29,263.14,130.11,252.32Z" transform="translate(-20.36 -7.22)"/></g><g id="Suki_cabeza" data-name="Suki cabeza"><path id="cabeza-2" data-name="cabeza" class="cls-6" d="M177.23,85C206.75,75.58,244,91.26,257,122c8.6,20.35,9.25,38.23-21.83,58.93C217,193,195.39,201,176.42,200.76,158.53,200.54,132.23,179,129,159,123.58,125.48,144.71,95.41,177.23,85Z" transform="translate(-20.36 -7.22)"/><path class="cls-14" d="M241,155s-35.89,13.62-44.57,15.33c-11.36,2.24-25.79,4.64-31.78,3.77-10.55-1.52-8.83,3.51-7.35,6.12s7.28,14.46,40.7,7.78c10-2,41.3-14.08,43-17C244.48,165,241,155,241,155Z" transform="translate(-20.36 -7.22)"/><path class="cls-8" d="M162.12,182.6a33.77,33.77,0,0,0,9.1,2.92l.53-1.24S169.7,184.76,162.12,182.6Z" transform="translate(-20.36 -7.22)"/><path id="boca" class="cls-4" d="M199.1,156.76c8.58-2.74,14.48,5.88,24,2.83s11.17-7.76,15.59-7.08c2.51.39,5.5,2.15,10.05,5.19,3.47,2.31,8.19,2.63,8.46,6.74.55,8.59-8.39,13.18-14.41,14.06s-22.78,1-35.16,4.94-21,13-31.52,16.37-16.08-1.06-17.63-5.92c-1.22-3.81,2.29-6,5.49-9.1,4.66-4.54,2.63-8.19,7.09-10.66,3.49-1.95,10.13-1.14,16.19-5.18S192.44,158.9,199.1,156.76Z" transform="translate(-20.36 -7.22)"/><path id="ojo_izq" data-name="ojo izq" class="cls-12" d="M240.83,132.93s.17,11.1-16.28,16.36c-14.78,4.72-19.88-7.95-19.53-10.16s3.23-10.48,11.8-13.22,13.91.22,17.12,1.88A30.7,30.7,0,0,1,240.83,132.93Z" transform="translate(-20.36 -7.22)"/><path id="pesta単a_izq" data-name="pesta単a izq" class="cls-15" d="M205,139.13s1.67-11,12.19-14.4c12.38-4,18,.54,21.14,3.74l5.42-2.78s.87,6-3.28,9.45c0,0-8.38-13.07-22.67-8.5A19.16,19.16,0,0,0,205,139.13Z" transform="translate(-20.36 -7.22)"/><circle id="pupila_der-2" data-name="pupila_der" class="cls-16" cx="195.66" cy="133.03" r="8.98"/><path id="ojo_izq-2" data-name="ojo_izq" class="cls-8" d="M240.83,132.93s-7.49-11.25-21.13-7.94c-5.71,1.82-11.9,6.69-13,9.41a35,35,0,0,0-1.64,4.73,9.69,9.69,0,0,0,3.38,7.31c3.56,2.93,4.82-8.88,13.39-11.62s15.49,5.9,16.1,5.35,3.36-5.36,2.94-7.24" transform="translate(-20.36 -7.22)"/><circle id="brillo_ojo_der-2" data-name="brillo ojo der" class="cls-14" cx="210.67" cy="136.17" r="1.64" transform="translate(-51.85 63.5) rotate(-17.75)"/><path id="ceja_izq" data-name="ceja izq" class="cls-15" d="M233.68,101.26s-17.5,3.27-23.62,7.21c-5.95,3.83-9.77,8.1-12.42,8.09-1.41,0-1.5-1.32-.18-2.83s8.29-6.76,15-9.48C220.71,100.88,233.68,101.26,233.68,101.26Z" transform="translate(-20.36 -7.22)"/><path id="ceja_der" data-name="ceja der" class="cls-15" d="M140.81,129.64s17-5.16,24.28-4.49c7,.66,12.41,2.69,14.75,1.46,1.25-.66.73-1.87-1.14-2.59s-10.47-2.18-17.65-1.52C152.14,123.33,140.81,129.64,140.81,129.64Z" transform="translate(-20.36 -7.22)"/><path id="ojo_der-3" data-name="ojo der" class="cls-12" d="M151,161.63s6.3,9.14,22.74,3.89c14.78-4.73,11.59-18,10-19.61s-8.71-6.67-17.29-3.93-11.2,8.26-12.85,11.46A31,31,0,0,0,151,161.63Z" transform="translate(-20.36 -7.22)"/><circle id="pupila_der-3" data-name="pupila_der" class="cls-16" cx="142.66" cy="150.03" r="8.98"/><path id="ojo_der-4" data-name="ojo_der" class="cls-8" d="M151.73,162.37s-.59-14.42,12.44-19.64c5.72-1.82,13.61-.67,16.12.89s3.74,2.52,3.74,2.52A10.31,10.31,0,0,1,185.1,154c-1.2,4.45-8.36-4.81-16.93-2.07s-9.61,14.27-10.43,14.18-5.27-2-6-3.76" transform="translate(-20.36 -7.22)"/><path id="pesta単a_der" data-name="pesta単a der" class="cls-15" d="M183.8,145.91s-7.77-8-18.29-4.66c-12.38,4-14.36,10.89-15,15.31l-6,.88s2.78,5.41,8.15,5.79c0,0-.76-15.5,13.53-20.07A19.2,19.2,0,0,1,183.8,145.91Z" transform="translate(-20.36 -7.22)"/><circle id="brillo_ojo_der-3" data-name="brillo ojo der" class="cls-14" cx="157.67" cy="153.17" r="1.64" transform="translate(-59.55 48.15) rotate(-17.75)"/><path id="nariz_der-2" data-name="nariz_der" class="cls-17" d="M192.93,170.29c3.5-2.17,4.49-5.64,3.24-6.29S192.93,170.29,192.93,170.29Z" transform="translate(-20.36 -7.22)"/><path id="nariz_izq-2" data-name="nariz_izq" class="cls-17" d="M211.27,164.43c-4.12.26-6.94-2-6.29-3.25S211.27,164.43,211.27,164.43Z" transform="translate(-20.36 -7.22)"/><path id="Sombra_boca" data-name="Sombra boca" class="cls-5" d="M158.79,194.32s2.28,7.67,11.38,6.6A359.81,359.81,0,0,0,206,194a162.2,162.2,0,0,0,28-10c3.84-1.92,14.64-5.27,19.85-11.14s2.79-10.43,2.79-10.43a6.53,6.53,0,0,0-2.48-2s2,7.48-3.36,10.26-33.61,6.54-41.53,8-24.2,13-27.71,15.15S160.66,196.35,158.79,194.32Z" transform="translate(-20.36 -7.22)"/><path class="cls-6" d="M152.36,95.12s-19.86-30.8.95-59.55c0,0-6.34,11.67-1.55,19.47,0,0-.51-21.68,29.49-28.11S213.49,12.86,213.5,7.22c0,0,1.21,28.35-9.45,34.15,0,0,12.45-4.18,14.23-19.27,0,0,13.61,39.54-32,59.81C171.62,93.16,156.44,103.45,152.36,95.12Z" transform="translate(-20.36 -7.22)"/><path class="cls-18" d="M151,98.12s-5.47-6.18-3.64-10.91,23.1-5.58,32.36-8,12.22-1.61,11.54,1.84S165.26,100.67,151,98.12Z" transform="translate(-20.36 -7.22)"/><path class="cls-17" d="M166.07,81.53s26.43-15.91,29.82-30.47S213,20.54,213,20.54s-1.21,16.65-8.91,20.83c0,0,16.18-2.13,16.12-4.77,0,0,2.35,26.39-28.89,42.89l-1.45,4s19.71-1.33,28.6,2-15.41,18.85-27.36,14S173.84,93,173.84,93,173.78,83.61,166.07,81.53Z" transform="translate(-20.36 -7.22)"/><path class="cls-5" d="M152.31,37.72s-5.13,8.89-5.16,17.8,6.67,15.87,6.67,15.87-3-12.08-2.07-16.47C151.75,54.92,147.45,49.41,152.31,37.72Z" transform="translate(-20.36 -7.22)"/></g><g id="mano_encima_kuno" data-name="mano encima kuno"><path class="cls-9" d="M170.52,214.56c-6.35-6.39-15.87-3.14-26.36-9.61s-13.71,8.89-8.4,18.32,21.42,20.38,35.09,15.4S176.87,221,170.52,214.56Z" transform="translate(-20.36 -7.22)"/><path class="cls-8" d="M134.82,208.64s8.06,16.79,21.71,16.2,19.19-4.71,21.81-.25,1.08,12.44-8.75,14.6-25.77-2-33.59-15.19C129.93,213.74,134.33,208.88,134.82,208.64Z" transform="translate(-20.36 -7.22)"/></g></g></g></g></g></g></g></svg>