<svg xmlns="http://www.w3.org/2000/svg" xmlns:xlink="http://www.w3.org/1999/xlink" viewBox="0 0 385.65 768.47"><defs><style>.cls-1{fill:none;}.cls-2{isolation:isolate;}.cls-3{fill:#fada5c;}.cls-4{fill:#9edb76;}.cls-5{fill:#ebe893;}.cls-13,.cls-6{fill:#f9b434;}.cls-7{fill:#212121;}.cls-8{fill:#f0f0f0;}.cls-9{clip-path:url(#clip-path);}.cls-10{fill:#3f81aa;}.cls-11{fill:#fff;}.cls-12{clip-path:url(#clip-path-2);}.cls-13{opacity:0.3;}.cls-13,.cls-14{mix-blend-mode:multiply;}.cls-14{fill:#4987ea;opacity:0.5;}</style><clipPath id="clip-path"><path class="cls-1" d="M232.76,334.74s24.65-20.6,44-7.76,11.35,49.55,11.35,49.55-5.59,3.59-30.8-8.61S232.76,334.74,232.76,334.74Z"/></clipPath><clipPath id="clip-path-2"><path class="cls-1" d="M95,274.83s32.66-23.75,50.48-14.84,26.73,23.75,26.73,41.57c0,0-14.85,20.79-44.55,8.91S95,274.83,95,274.83Z"/></clipPath></defs><title>Suki asomada</title><g class="cls-2"><g id="Layer_2" data-name="Layer 2"><g id="Layer_2-2" data-name="Layer 2"><path class="cls-3" d="M121.49,165.76c-8.91-3-36.55-13.86-33.58-49.5s24.67-48.49,45.45-60.37c0,0-20.78,23.75-11.87,35.63,0,0,17.76-46.19,57.16-51.82,59.55-8.51,67.52-24.85,79.4-39.7,0,0,25.52,136.11-71.23,159.82C142.7,170.64,130.39,168.73,121.49,165.76Z"/><path class="cls-4" d="M121.75,197.62c-21.62,0-41.57-8.9-38.6-32.66s38.6-35.64,68.3-32.67,74.24,20.79,62.36,44.55S133.63,197.62,121.75,197.62Z"/><path class="cls-3" d="M89.09,179.81c29.28-10.19,74.24-20.79,121.75-8.91s101,38.6,118.79,106.9-11.88,121.76-50.49,154.42-124.72,44.55-157.39,35.64S0,420.54,0,328.29C0,245.14,20.79,203.56,89.09,179.81Z"/><path class="cls-3" d="M130.44,433.86S207,470.72,252.37,445.2s96.42-51,99.25-73.73,34-14.18,34,17,2.84,65.22-170.14,153.12C156,589.82,110.59,757.12,11.34,768.47V343.12S90.74,422.52,130.44,433.86Z"/><path class="cls-5" d="M53.88,470.72a149.7,149.7,0,0,0-42.54-1V694.22c16.4-11.89,32.78-24.59,48.21-36.34C119.1,612.51,141.78,484.9,53.88,470.72Z"/><path class="cls-6" d="M191.34,336.15c13.53,7.07,12.73,12.29,17.74,21.75s34.07,28.44,58.31,24.93c5.91.6,16.43-3.09,15,11-1.75,17.22-15.52,18.37-35.86,16.31-16.93-1.72-33.12-2.69-49.35-19.26s-36.2-7.11-66-23.8c-20.51-11.5-16.54-11.2-37.21-26.58-18.14-13.5-15-15.22-23-25s2.55-34.23,20-29.47,29,39.85,55.24,45.51S174.69,327.45,191.34,336.15Z"/><path class="cls-7" d="M101.16,239.63s26.83-15.58,55.1-6.3c31.69,10.42,30.15,19.07,33,16.08,3.3-3.5-12.53-14.58-30.06-20.61S114.74,227.38,101.16,239.63Z"/><path class="cls-7" d="M311.21,347.62s-4.61-30.53-26-44.72c-24-15.9-28.77-8.71-28.38-12.88.45-4.86,16.24-1,29.7,7.57S311.69,329.11,311.21,347.62Z"/><path class="cls-8" d="M95,274.83s32.66-23.75,50.48-14.84,26.73,23.75,26.73,41.57c0,0-14.85,20.79-44.55,8.91S95,274.83,95,274.83Z"/><path class="cls-8" d="M232.76,334.74s24.65-20.6,44-7.76,11.35,49.55,11.35,49.55-5.59,3.59-30.8-8.61S232.76,334.74,232.76,334.74Z"/><path class="cls-7" d="M172.24,301.56s-3-32.67-26.73-38.6S95,277.8,95,277.8s-8.91-11.88-5.94-23.75L101,263s23.75-14.85,47.51-5.94S172.24,301.56,172.24,301.56Z"/><path class="cls-7" d="M232.76,334.74s29.37-20.59,43.1-4.16,13.88,33.82,6.3,46.59c0,0,9.18,2,20.67-2.24l-9.5-4.95s5.34-33.43-14-46.27S232.76,334.74,232.76,334.74Z"/><g class="cls-9"><circle class="cls-10" cx="250.87" cy="349.06" r="19.3"/><circle class="cls-11" cx="245.29" cy="338.86" r="4.25"/></g><g class="cls-12"><circle class="cls-10" cx="123.24" cy="288.2" r="19.3"/><circle class="cls-11" cx="131.86" cy="282.15" r="4.25"/></g><path class="cls-13" d="M258.28,0s7.78,44.58-2.12,86.68-38.92,60.5-49.54,66.52c0,0,10.62,7.43,9.56,19.1,0,0,27.48,6.73,51.06,20.88,0,0-62-27.6-90.34-27.6,0,0,17.69-3.54,14.86-14.15a18.91,18.91,0,0,0-12.26-13.21s53.31-23.59,62.5-64.63S258.28,0,258.28,0Z"/><path class="cls-13" d="M133,55.9s-18.4,8.49-19.1,31.84c0,9.91,4.95,24.77,4.95,24.77s9.91-37.5,18.4-47.41c0,0-10.26,12.38-15.92,26.54,0,0-4.43-5.31-.45-15.39S133,55.9,133,55.9Z"/><path class="cls-14" d="M94.82,274.55s23.35-18.39,51-14.86c11.32,1.42,28.3,23.35,26.18,41.75a31.79,31.79,0,0,1-11.56,9.2s-7.54-24.76-21-30.43-39.63,8-39.63,8Z"/><path class="cls-14" d="M232.81,334.7s23.35-19.46,40.33-9.38,16.51,26.84,16.75,31.55-3.19,21-3.19,21l-5.19-1.07s-7.66-24.41-19-32.19-29.24-4.72-29.24-4.72Z"/><path class="cls-13" d="M74.3,290.83s24.06,6.37,34,22.64,44.58,36.8,59.43,31.84,26.89,0,28.31,7.79,43.16,40.33,60.15,36.79,23.35-4.48,26.18-2.59c0,0,2-6.76-27.6-4.48-9.2.71-43.07-13-48.82-31.14-5-15.56-25.48-21.93-34.68-19.1s-29.72.71-38.92-7.08-28.3-31.6-34-35.61S84.21,282.34,74.3,290.83Z"/><path class="cls-13" d="M305.45,404.05s-30.9,30.42-73.35,27.59c0,0,34.67,24.77,61.56,2.83s31.84-32.55,31.84-32.55-27.59,21.94-43.16,26.19C282.34,428.11,303.09,411.12,305.45,404.05Z"/><path class="cls-13" d="M11.5,493.63s116.83-31.82,126.14,29.85S92.41,629.64,63.15,635.54a385.4,385.4,0,0,1-52.54,7Z"/><path class="cls-13" d="M.24,337.53s18.16,47.41,38,50.24l-26.89,4V380.7S2.6,365.84.24,337.53Z"/><path class="cls-13" d="M118.88,409.71s34.67,17,51,16.27C169.83,426,145.06,434.47,118.88,409.71Z"/><path class="cls-13" d="M81.38,731S56.61,755,38.21,761s-26.89,7.43-26.89,7.43l.36-17.69S41,754.31,65.81,740.16Z"/><path class="cls-13" d="M90,136.1s4.36,7.78,8.84,7l-4.25,3.06A76.63,76.63,0,0,1,90,136.1Z"/><path class="cls-13" d="M83,167.7s4.77,11.33,14.68,9.2l-12.38,4.25S82.44,176.2,83,167.7Z"/></g></g></g></svg>